<svg id="Core" width="24" height="24" version="1.1" viewBox="0 0 24 24" xmlns="http://www.w3.org/2000/svg">
    <path id="Shape" d="m12.001 0c-6.6279 0-12.001 5.3727-12.001 12 0 6.6273 5.3731 12 12.001 12 6.6279 0 11.999-5.3727 11.999-12 0-6.6273-5.3712-12-11.999-12zm-0.07227 2.2676c0.02407-8.9e-5 0.04819-8.89e-5 0.07227 0 5.3754 0 9.7313 4.3575 9.7313 9.7324 0 2.1514-0.70304 4.1337-1.8869 5.7422-0.54242-2.939-3.6814-4.7874-7.5143-4.7949 2.0567-0.17199 3.6387-1.8913 3.639-3.9551 0-2.1921-1.7767-3.9707-3.9691-3.9707-2.1922 0-3.9691 1.7766-3.9691 3.9688 0.0011 2.0651 1.5845 3.7857 3.6429 3.9551-3.8345 0.0063-6.9772 1.8568-7.5201 4.7969-1.182-1.6105-1.8869-3.5913-1.8869-5.7422-1.48e-4 -5.3468 4.3138-9.6928 9.6609-9.7324z" style="stroke-dasharray:31.2122, 15.60609999999999964;stroke-dashoffset:25.75;stroke-linejoin:round;stroke-width:3.9015"/>
</svg>
