<svg width="24" height="24" version="1.1" viewBox="0 0 6.35 6.35" xmlns="http://www.w3.org/2000/svg">
    <g transform="translate(.1505 -.0046039)">
        <path id="core-a" d="m3.0245 0.0046039a3.175 3.175 0 0 0-3.175 3.175 3.175 3.175 0 0 0 3.175 3.175 3.175 3.175 0 0 0 3.175-3.175 3.175 3.175 0 0 0-3.175-3.175zm-0.01912 0.59996a2.575 2.575 0 0 1 0.01912 0 2.575 2.575 0 0 1 2.575 2.575 2.575 2.575 0 0 1-2.575 2.575 2.575 2.575 0 0 1-2.575-2.575 2.575 2.575 0 0 1 2.5559-2.575z" style="stroke-width:.26458"/>
        <path id="core-b" d="m3.0245 1.1952c-0.21987 0-0.39688 0.17597-0.39688 0.39481v1.1927h-1.1927c-0.21884 0-0.39481 0.17701-0.39481 0.39688s0.17597 0.39688 0.39481 0.39688h1.1927v1.1927c0 0.21884 0.17701 0.39481 0.39688 0.39481s0.39688-0.17596 0.39688-0.39481v-1.1927h1.1927c0.21884 0 0.39481-0.17701 0.39481-0.39688s-0.17596-0.39688-0.39481-0.39688h-1.1927v-1.1927c0-0.21884-0.17701-0.39481-0.39688-0.39481z" style="stroke-width:.26396"/>
    </g>
</svg>
