<svg id="Core" width="24" height="24" version="1.1" viewBox="0 0 24 24" xmlns="http://www.w3.org/2000/svg">
    <path id="Shape" d="m11.992 6.6666e-7a12 12 0 0 0-11.992 12 12 12 0 0 0 12 12 12 12 0 0 0 12-12 12 12 0 0 0-12-12 12 12 0 0 0-8e-3 0zm-0.06384 2.2683a9.7324 9.7324 0 0 1 0.07182 0 9.7324 9.7324 0 0 1 9.7337 9.7317 9.7324 9.7324 0 0 1-9.7337 9.7337 9.7324 9.7324 0 0 1-9.7317-9.7337 9.7324 9.7324 0 0 1 9.6599-9.7317zm0.07182 2.2324c-0.83102 0-1.5002 0.66515-1.5002 1.4923v4.5067h-4.5067c-0.82712 0-1.4923 0.66923-1.4923 1.5002 0 0.83102 0.66515 1.5002 1.4923 1.5002h4.5067v4.5087c0 0.82712 0.66923 1.4923 1.5002 1.4923s1.5002-0.66511 1.5002-1.4923v-4.5087h4.5087c0.82712 0 1.4923-0.66923 1.4923-1.5002 0-0.83102-0.66511-1.5002-1.4923-1.5002h-4.5087v-4.5067c0-0.82712-0.66923-1.4923-1.5002-1.4923z" style="fill:#040404;stroke-dasharray:32.0306, 16.01520000000000010;stroke-dashoffset:26.425;stroke-linejoin:round;stroke-width:4.0038"/>
</svg>
