<svg id="Core" width="24" height="24" version="1.1" viewBox="0 0 24 24" xmlns="http://www.w3.org/2000/svg">
    <path id="Shape" d="m11.974 0c-0.41926 1e-8 -0.8389 0.16047-1.1602 0.48242l-10.332 10.355c-0.64252 0.64388-0.64252 1.6803 0 2.3242l10.332 10.355c0.64252 0.64388 1.6778 0.64388 2.3203 0 0.64252-0.64388 0.64252-1.6823 0-2.3262l-7.5332-7.5488h16.758c0.90867 0 1.6406-0.73198 1.6406-1.6426s-0.73195-1.6426-1.6406-1.6426h-16.76l7.5352-7.5508c0.64256-0.64388 0.64252-1.6803 0-2.3242-0.32127-0.32195-0.74086-0.48242-1.1602-0.48242z" style="stroke-dasharray:31.6554, 15.82770000000000010;stroke-dashoffset:26.116;stroke-linejoin:round;stroke-width:3.9569"/>
</svg>
