<svg width="24" height="24" version="1.1" viewBox="0 0 6.35 6.35" xmlns="http://www.w3.org/2000/svg">
    <g transform="translate(.12916 -.0098221)">
        <path id="core-a" d="m3.0527 0.0098221c0.11093 0 0.22168 0.042486 0.30668 0.12767l2.7339 2.7397c0.17 0.17036 0.17 0.44481 0 0.61517l-2.7339 2.7397c-0.17 0.17036-0.44387 0.17036-0.61388 0-0.17-0.17036-0.17-0.44481 0-0.61517l1.9932-1.9974h-4.4338c-0.24042 0-0.43408-0.19355-0.43408-0.43448 0-0.24093 0.19366-0.43499 0.43408-0.43499h4.4343l-1.9937-1.9974c-0.17001-0.17036-0.17-0.44481 0-0.61517 0.085002-0.085182 0.19626-0.12767 0.3072-0.12767z" style="stroke-width:.26329"/>
    </g>
</svg>
