<svg width="24" height="24" version="1.1" viewBox="0 0 6.35 6.35" xmlns="http://www.w3.org/2000/svg">
    <g transform="translate(.70548 -.35328)">
        <path id="core-a" d="m2.3634 0.35328c-0.21689 0-0.39159 0.16961-0.39159 0.38043v0.13558c-2.1068 0.23484-0.87602 2.0606-2.49 3.6451-0.21467 0.19376-0.22051 0.48995-0.13825 0.72309 0.062516 0.17718 0.089733 0.39392 0.43792 0.39392h5.3761c0.34819 0 0.37541-0.21674 0.43792-0.39392 0.082262-0.23315 0.076419-0.52933-0.13825-0.72309-1.614-1.5845-0.3832-3.4103-2.49-3.6451v-0.13558c0-0.21082-0.1747-0.38043-0.39159-0.38043z" style="color-rendering:auto;color:#000000;dominant-baseline:auto;font-feature-settings:normal;font-variant-alternates:normal;font-variant-caps:normal;font-variant-east-asian:normal;font-variant-ligatures:normal;font-variant-numeric:normal;font-variant-position:normal;font-variation-settings:normal;image-rendering:auto;inline-size:0;isolation:auto;mix-blend-mode:normal;shape-margin:0;shape-padding:0;shape-rendering:auto;solid-color:#000000;stop-color:#000000;text-decoration-color:#000000;text-decoration-line:none;text-decoration-style:solid;text-indent:0;text-orientation:mixed;text-transform:none;white-space:normal"/>
        <path id="core-b" d="m1.683 5.9511a0.78955 0.69085 0 0 0-0.00309 0.061393 0.78955 0.69085 0 0 0 0.78955 0.69085 0.78955 0.69085 0 0 0 0.78955-0.69085 0.78955 0.69085 0 0 0-0.00385-0.061393z" style="stroke-width:.36928"/>
    </g>
</svg>
