<svg id="Core" version="1.1" viewBox="0 0 24 24" xmlns="http://www.w3.org/2000/svg">
    <path id="Shape" d="m11.6 0c-0.81974 0-1.4805 0.6407-1.4805 1.4375v0.51172c-7.9627 0.88758-3.312 7.7887-9.4121 13.777-0.81135 0.73232-0.83239 1.8513-0.52148 2.7324 0.23628 0.66966 0.33831 1.4902 1.6543 1.4902h20.32c1.316 0 1.418-0.82058 1.6543-1.4902 0.31091-0.8812 0.28791-2.0001-0.52344-2.7324-6.1002-5.9887-1.4474-12.89-9.4102-13.777v-0.51172c0-0.7968-0.66073-1.4375-1.4805-1.4375zm-2.5723 21.156a2.9841 2.6111 0 0 0-0.011719 0.23242 2.9841 2.6111 0 0 0 2.9844 2.6113 2.9841 2.6111 0 0 0 2.9844-2.6113 2.9841 2.6111 0 0 0-0.01563-0.23242z" style="stroke-dasharray:31.5, 15.75000000000000000;stroke-dashoffset:25.988;stroke-linejoin:round;stroke-width:3.9375"/>
</svg>
