<svg id="Core" version="1.1" viewBox="0 0 24 24" xmlns="http://www.w3.org/2000/svg">
    <g transform="translate(-.59593 -4.9415)">
        <path id="Shape" d="m11.71 4.9743a12 12 0 0 0-11.081 12.854 12 12 0 0 0 12.854 11.081 12 12 0 0 0 11.081-12.854 12 12 0 0 0-12.854-11.081zm0.09543 2.2667a9.7319 9.7319 0 0 1 0.07207-0.0053 9.7319 9.7319 0 0 1 6.0729 1.5812l-12.603 14.619a9.7319 9.7319 0 0 1-2.4568-5.7755 9.7319 9.7319 0 0 1 8.9148-10.419zm8.0398 3.2059a9.7319 9.7319 0 0 1 2.4568 5.7755 9.7319 9.7319 0 0 1-8.987 10.425 9.7319 9.7319 0 0 1-6.0729-1.5812z" style="stroke-width:.99999"/>
    </g>
</svg>
