<svg width="24" height="24" version="1.1" viewBox="0 0 6.35 6.35" xmlns="http://www.w3.org/2000/svg">
    <g transform="translate(1.0715 -.19332)">
        <path id="core-a" d="m2.1035 0.19332a3.175 3.175 0 0 0-3.175 3.175 3.175 3.175 0 0 0 3.175 3.175 3.175 3.175 0 0 0 3.175-3.175 3.175 3.175 0 0 0-3.175-3.175zm-0.01912 0.59996a2.575 2.575 0 0 1 0.01912 0 2.575 2.575 0 0 1 2.575 2.575 2.575 2.575 0 0 1-2.575 2.575 2.575 2.575 0 0 1-2.575-2.575 2.575 2.575 0 0 1 2.5559-2.575z" style="stroke-width:.26458"/>
    </g>
</svg>
