<svg width="24" height="24" version="1.1" viewBox="0 0 6.35 6.35" xmlns="http://www.w3.org/2000/svg">
    <g transform="translate(.97576 -.01436)">
        <path id="core-a" d="m1.9648 0.02303a3.175 3.175 0 0 0-2.9318 3.4009 3.175 3.175 0 0 0 3.4009 2.9318 3.175 3.175 0 0 0 2.9318-3.4009 3.175 3.175 0 0 0-3.4009-2.9318zm0.02525 0.59974a2.5749 2.5749 0 0 1 0.01907-0.00141 2.5749 2.5749 0 0 1 1.6068 0.41835l-3.3345 3.868a2.5749 2.5749 0 0 1-0.65002-1.5281 2.5749 2.5749 0 0 1 2.3587-2.7568zm2.1272 0.84822a2.5749 2.5749 0 0 1 0.65002 1.5281 2.5749 2.5749 0 0 1-2.3778 2.7582 2.5749 2.5749 0 0 1-1.6068-0.41835z" style="stroke-width:.26458"/>
    </g>
</svg>
