<svg id="Core" width="24" height="24" version="1.1" viewBox="0 0 24 24" xmlns="http://www.w3.org/2000/svg">
    <path id="Shape" d="m12 0c-6.6274-1e-7 -12 5.3726-12 12 0 6.6274 5.3726 12 12 12 6.6274 0 12-5.6923 12-12 0-1.0538-1.7741-1.4982-2.4273 1.7588-0.80228 4.3691-4.8759 7.9749-9.5727 7.9749-5.3749 7.6e-5 -9.7317-4.3588-9.7317-9.7337-2.233e-4 -5.3469 4.3134-9.692 9.6603-9.7317 0.02407-8.94e-5 0.04724-8.94e-5 0.07133 0 2.0242 3.453e-4 4.4387 0.89071 5.678 1.7609 1.2393 0.87012 3.2474 0.082322 1.6997-1.4654-1.4178-1.4178-4.7521-2.5612-7.3777-2.5618zm10.365 4.7976c-0.23424 0.012002-0.44548 0.11252-0.60326 0.26698l-10.021 9.8111-5.517-5.4008c-0.37428-0.36641-0.97694-0.36641-1.3512 0l-0.33628 0.33016c-0.37428 0.36642-0.37428 0.95627 0 1.3227l6.1916 6.0632 0.33832 0.33016c0.37428 0.36639 0.97694 0.36639 1.3512 0l0.34035-0.33424 10.694-10.469c0.43336-0.42425 0.37428-0.95626 0-1.3227l-0.33832-0.33016c-0.25665-0.20247-0.51373-0.27899-0.74796-0.26698z" style="fill-opacity:.99482;stroke-dasharray:31.9313, 15.96570000000000000;stroke-dashoffset:26.343;stroke-linejoin:round;stroke-width:3.9914"/>
</svg>
