<svg width="24" height="24" version="1.1" viewBox="0 0 6.3501 6.3501" xmlns="http://www.w3.org/2000/svg">
    <g transform="translate(1.3597 -.074133)">
        <g id="core-a" transform="matrix(1 0 0 1 -1.3585 .10868)">
            <path id="core-b" d="m5.7568 1.3052-2.6514 2.5957-1.4598-1.4287c-0.099029-0.096947-0.25852-0.096947-0.35755 0l-0.089284 0.087409c-0.099029 0.096948-0.099029 0.25309 0 0.35004l1.6384 1.604 0.089284 0.08741c0.099029 0.09694 0.25852 0.09694 0.35755 0l0.090519-0.08862 2.8291-2.7697c0.11466-0.11225 0.099029-0.25309 0-0.35004l-0.089284-0.087408c-0.13581-0.10714-0.27406-0.081736-0.35755 0z" style="stroke-width:.20844"/>
            <path id="core-c" d="m3.1738-0.034543c-1.7535-2e-8 -3.175 1.4215-3.175 3.175-8e-8 1.7535 1.4215 3.175 3.175 3.175s3.175-1.5061 3.175-3.175c0-0.27881-0.4695-0.39668-0.64232 0.46508-0.21227 1.156-1.2899 2.1099-2.5326 2.1099-1.4221 2.01e-5 -2.575-1.1529-2.575-2.575-5.896e-5 -1.4147 1.1412-2.5645 2.5559-2.575 0.00637-2.365e-5 0.012748-2.365e-5 0.019121 0 0.53556 9.136e-5 1.1743 0.23538 1.5022 0.46561 0.32789 0.23022 0.85906 0.021929 0.44957-0.38756-0.37512-0.37512-1.2571-0.67783-1.9518-0.67799z" style="stroke-width:.26458"/>
        </g>
    </g>
</svg>
