<svg width="24" height="24" version="1.1" viewBox="0 0 6.3499 6.3501" xmlns="http://www.w3.org/2000/svg">
    <g transform="translate(1.4882 -.12271)">
        <path id="core-a" d="m-1.0904 0.12271c-0.10162 0-0.20321 0.039118-0.28108 0.11698-0.15573 0.15573-0.15573 0.40641 0 0.56214l2.496 2.496-2.496 2.496c-0.15573 0.15573-0.15573 0.40641 0 0.56214s0.40642 0.15573 0.56215 0l2.496-2.496 2.496 2.496c0.15573 0.15573 0.40642 0.15573 0.56215 0s0.15573-0.40641 0-0.56214l-2.496-2.496 2.496-2.496c0.15573-0.15573 0.15573-0.40641 0-0.56214s-0.40642-0.15573-0.56215 0l-2.496 2.496-2.496-2.496c-0.07787-0.077864-0.17946-0.11698-0.28108-0.11698z" style="stroke-width:.26503"/>
    </g>
</svg>
