<svg id="Core" width="24" height="24" version="1.1" viewBox="0 0 23.999 24" xmlns="http://www.w3.org/2000/svg">
    <g transform="translate(.024185 -.8023)">
        <path id="Shape" d="m1.4796 0.8023c-0.38407 0-0.76803 0.14784-1.0623 0.44212-0.58858 0.58858-0.58858 1.536 0 2.1246l9.4336 9.4336-9.4336 9.4336c-0.58858 0.58858-0.58858 1.536 0 2.1246 0.58858 0.58858 1.5361 0.58858 2.1246 0l9.4336-9.4336 9.4336 9.4336c0.58858 0.58858 1.5361 0.58858 2.1246 0 0.58858-0.58858 0.58858-1.536 0-2.1246l-9.4336-9.4336 9.4336-9.4336c0.58858-0.58858 0.58858-1.536 0-2.1246-0.58858-0.58858-1.5361-0.58858-2.1246 0l-9.4336 9.4336-9.4336-9.4336c-0.29431-0.29429-0.67826-0.44212-1.0623-0.44212z" style="stroke-width:1.0017"/>
    </g>
</svg>
