<svg width="24" height="24" version="1.1" viewBox="0 0 6.3499 6.35" xmlns="http://www.w3.org/2000/svg">
    <g transform="translate(1.094 -.0087708)">
        <g id="core-d" transform="matrix(1 0 0 .99856 -.94351 .0041735)">
            <path id="core-e" transform="matrix(.26458 0 0 .26458 -.1505 .0046039)" d="m7.8984 0c-0.76543 0.76543-1.2458 1.1931-2.1777 2.125h-4.8828c-0.46394 0-0.83789 0.37395-0.83789 0.83789v2.3809h24v-2.3809c0-0.46394-0.37395-0.83789-0.83789-0.83789h-4.8828c-1.1065-1.1065-1.4343-1.3816-2.1777-2.125z" style="opacity:.96;stroke-width:.76376"/>
            <path id="core-f" d="m0.64325 1.9175v4.0494c0 0.21987 0.19913 0.39688 0.44648 0.39688h3.8695c0.24735 0 0.44648-0.17701 0.44648-0.39688v-4.0494z" style="opacity:.96;stroke-width:.28063"/>
        </g>
    </g>
</svg>
