<svg id="Core" version="1.1" viewBox="0 0 23.999 24" xmlns="http://www.w3.org/2000/svg">
    <g transform="translate(.024185 -.8023)">
        <path id="Shape" d="m7.9778 0.8023c-0.83202 0-1.5 0.65435-1.5 1.4668v4.2305l-5.2266 0.00195c-0.42444 1.261e-4 -0.72514 0.034299-0.93555 0.23242-0.26431 0.25802-0.38964 0.77511-0.32031 1.0801 0.03046 0.11096 0.04401 0.19777 0.14062 0.33008 0.29036 0.39825 9.9238 9.9629 9.9238 9.9629 0.20545 0.21231 0.40024 0.40691 0.55078 0.54883 0.47157 0.39084 0.79394 0.51626 1.3262 0.53516 0.01436-6e-4 0.02495-0.0033 0.03906-0.0039 0.01398 7e-4 0.02457 0.0034 0.03906 0.0039 0.53227-0.0189 0.85464-0.1443 1.3262-0.53516 0.15057-0.14191 0.34336-0.33651 0.54883-0.54883 0 0 9.6355-9.5645 9.9258-9.9629 0.09665-0.13231 0.11016-0.21912 0.14062-0.33008 0.069325-0.30499-0.055975-0.82205-0.32031-1.0801-0.2104-0.19815-0.51114-0.23229-0.93555-0.23242l-5.2246-0.00195v-4.2305c0-0.81245-0.66993-1.4668-1.502-1.4668zm-6.502 20.094c-0.83093 0-1.5 0.43564-1.5 0.97656v1.9531c0 0.54096 0.66903 0.97656 1.5 0.97656h21c0.83093 0 1.5-0.43564 1.5-0.97656v-1.9531c0-0.54096-0.66903-0.97656-1.5-0.97656z" style="stroke-dasharray:30.24, 15.11999999999999922;stroke-dashoffset:24.948;stroke-linejoin:round;stroke-width:3.78"/>
    </g>
</svg>
