<svg width="24" height="24" version="1.1" viewBox="0 0 6.3499 6.35" xmlns="http://www.w3.org/2000/svg">
    <g transform="translate(1.0098 -.011506)">
        <g id="core-a" transform="translate(-.73965 -.14997)">
            <path id="core-b" d="m1.8473 0.16148c-0.22014 0-0.39738 0.17307-0.39738 0.38803v1.1192l-1.3828 5.045e-4c-0.1123 3.42e-5 -0.19185 0.00914-0.24752 0.06156-0.069934 0.068268-0.10309 0.20541-0.084747 0.2861 0.00806 0.029357 0.011642 0.052287 0.037206 0.087294 0.076824 0.10537 2.6261 2.636 2.6261 2.636 0.054359 0.056174 0.10589 0.10727 0.14572 0.14482 0.12477 0.10341 0.21005 0.13679 0.35087 0.14179 0.0038-1.532e-4 0.0066-8.36e-4 0.010335-0.00101 0.0037 1.762e-4 0.0065 8.66e-4 0.010335 0.00101 0.14083-5e-3 0.22611-0.038375 0.35087-0.14179 0.039839-0.037547 0.090846-0.088643 0.14521-0.14482 0 0 2.5493-2.5306 2.6261-2.636 0.025569-0.035006 0.029146-0.057937 0.037206-0.087294 0.01834-0.080696-0.014809-0.21783-0.084747-0.2861-0.055669-0.052427-0.13523-0.061526-0.24752-0.06156l-1.3823-5.045e-4v-1.1192c0-0.21496-0.17724-0.38803-0.39738-0.38803z" style="color-rendering:auto;color:#000000;dominant-baseline:auto;font-feature-settings:normal;font-variant-alternates:normal;font-variant-caps:normal;font-variant-east-asian:normal;font-variant-ligatures:normal;font-variant-numeric:normal;font-variant-position:normal;font-variation-settings:normal;image-rendering:auto;inline-size:0;isolation:auto;mix-blend-mode:normal;shape-margin:0;shape-padding:0;shape-rendering:auto;solid-color:#000000;stop-color:#000000;stroke-width:.48054;text-decoration-color:#000000;text-decoration-line:none;text-decoration-style:solid;text-indent:0;text-orientation:mixed;text-transform:none;white-space:normal"/>
            <path id="core-c" d="m6.0797 5.7364v0.51671c0 0.14312-0.177 0.25835-0.39685 0.25835h-5.556c-0.21986 0-0.39685-0.11522-0.39685-0.25835v-0.51671c0-0.14312 0.177-0.25835 0.39685-0.25835h5.556c0.21986 0 0.39685 0.11522 0.39685 0.25835z" style="stroke-width:.8068"/>
        </g>
    </g>
</svg>
