<svg id="Core" version="1.1" viewBox="0 0 23.999 24" xmlns="http://www.w3.org/2000/svg">
    <g transform="translate(.024185 -.8023)">
        <path id="Shape" d="m17.478 0.8023a3.5 3.5 0 0 0-3 1.7012h-12.459c-1.1312 0-2.043 0.75093-2.043 1.6836v0.23242c0 0.93266 0.91177 1.6836 2.043 1.6836h12.457a3.5 3.5 0 0 0 3.002 1.6992 3.5 3.5 0 0 0 3.002-1.6992h1.4551c1.1312 0 2.041-0.75093 2.041-1.6836v-0.23242c0-0.93266-0.90978-1.6836-2.041-1.6836h-1.4551a3.5 3.5 0 0 0-3.002-1.7012zm-0.04883 1.5a2 2 0 0 1 0.04883 0 2 2 0 0 1 2 2 2 2 0 0 1-2 2 2 2 0 0 1-2-2 2 2 0 0 1 1.9512-2zm-10.955 7a3.5 3.5 0 0 0-3.002 1.7012h-1.4551c-1.1312 0-2.041 0.75093-2.041 1.6836v0.23242c0 0.93266 0.90978 1.6836 2.041 1.6836h1.4551a3.5 3.5 0 0 0 3.002 1.6992 3.5 3.5 0 0 0 3.002-1.6992h12.457c1.1312 0 2.043-0.75094 2.043-1.6836v-0.23242c0-0.93266-0.91174-1.6836-2.043-1.6836h-12.459a3.5 3.5 0 0 0-3-1.7012zm0 1.5a2 2 0 0 1 2 2 2 2 0 0 1-2 2 2 2 0 0 1-2-2 2 2 0 0 1 2-2zm11.004 7a3.5 3.5 0 0 0-3 1.7012h-12.459c-1.1312 0-2.043 0.75093-2.043 1.6836v0.23242c0 0.93266 0.91177 1.6836 2.043 1.6836h12.457a3.5 3.5 0 0 0 3.002 1.6992 3.5 3.5 0 0 0 3.002-1.6992h1.4551c1.1312 0 2.041-0.75094 2.041-1.6836v-0.23242c0-0.93266-0.90978-1.6836-2.041-1.6836h-1.4551a3.5 3.5 0 0 0-3.002-1.7012zm-0.04883 1.5a2 2 0 0 1 0.04883 0 2 2 0 0 1 2 2 2 2 0 0 1-2 2 2 2 0 0 1-2-2 2 2 0 0 1 1.9512-2z" style="stroke-dasharray:30.24, 15.11999999999999922;stroke-dashoffset:24.948;stroke-linejoin:round;stroke-width:3.78"/>
    </g>
</svg>
