<svg id="Core" version="1.1" viewBox="0 0 24 24" xmlns="http://www.w3.org/2000/svg">
    <g transform="translate(-.70861 -2.015)">
        <path id="Shape" d="m4.445 2.015c-2.0695 0-3.7364 1.6669-3.7364 3.7363v16.527c0 2.0694 1.6669 3.7363 3.7364 3.7363h16.527c2.0695 0 3.7364-1.6669 3.7364-3.7363v-12.58c0-2.2926-1.8463-4.1515-4.1386-4.1368h-6.8282l-2.3185-3.5469h-6.9786zm8.2641 6.9824c0.69253 0 1.25 0.55749 1.25 1.25v3.5h3.5001c0.69253 0 1.25 0.55749 1.25 1.25s-0.55753 1.25-1.25 1.25h-3.5001v3.5c0 0.6925-0.55753 1.25-1.25 1.25-0.69253 0-1.25-0.55749-1.25-1.25v-3.5h-3.5001c-0.69253 0-1.25-0.55749-1.25-1.25s0.55753-1.25 1.25-1.25h3.5001v-3.5c0-0.6925 0.55753-1.25 1.25-1.25z"/>
    </g>
</svg>
