<svg width="24" height="24" version="1.1" viewBox="0 0 6.3498 6.3499" xmlns="http://www.w3.org/2000/svg">
    <g transform="translate(.76905 .46409)">
        <path id="core-a" d="m0.21953-0.46409c-0.54754 0-0.98858 0.44103-0.98858 0.98855v4.3728c0 0.54752 0.44104 0.98855 0.98858 0.98855h4.3728c0.54754 0 0.98858-0.44103 0.98858-0.98855v-3.3284c0-0.60658-0.48848-1.0984-1.095-1.0945h-1.8066l-0.61342-0.93844h-1.8464zm2.1865 1.8474c0.18323 0 0.33073 0.1475 0.33073 0.33072v0.92603h0.92606c0.18323 0 0.33073 0.1475 0.33073 0.33072 0 0.18322-0.14751 0.33072-0.33073 0.33072h-0.92606v0.92603c0 0.18322-0.14751 0.33072-0.33073 0.33072-0.18323 0-0.33073-0.1475-0.33073-0.33072v-0.92603h-0.92606c-0.18323 0-0.33073-0.1475-0.33073-0.33072 0-0.18322 0.14751-0.33072 0.33073-0.33072h0.92606v-0.92603c0-0.18322 0.14751-0.33072 0.33073-0.33072z" style="image-rendering:optimizeQuality;stroke-width:.26458"/>
    </g>
</svg>
