<svg width="24" height="24" version="1.1" viewBox="0 0 6.35 6.3501" xmlns="http://www.w3.org/2000/svg">
    <g transform="translate(.71746 .27015)">
        <g id="core-a" transform="translate(-.75087 -.33693)">
            <path id="core-b" d="m5.3251 4.0356v0.88212c0 0.2443-0.1965 0.4408-0.4408 0.4408h-0.88212v1.0583h1.7198c0.36645 0 0.66146-0.29501 0.66146-0.66146v-1.7198z" style="stroke-width:.26458"/>
            <path id="core-c" d="m0.033409 4.0356v1.7198c0 0.36645 0.29501 0.66146 0.66146 0.66146h1.7198v-1.0583h-0.88212c-0.2443 0-0.4408-0.1965-0.4408-0.4408v-0.88212z" style="stroke-width:.26458"/>
            <path id="core-d" d="m4.0022 0.066817v1.0583h0.88212c0.2443 0 0.4408 0.1965 0.4408 0.4408v0.88212h1.0583v-1.7198c0-0.36645-0.29501-0.66146-0.66146-0.66146z" style="stroke-width:.26458"/>
            <path id="core-e" d="m0.69487 0.066817c-0.36645 0-0.66146 0.29501-0.66146 0.66146v1.7198h1.0583v-0.88212c0-0.2443 0.1965-0.4408 0.4408-0.4408h0.88212v-1.0583z" style="stroke-width:.26458"/>
        </g>
    </g>
</svg>
