<svg id="Core" width="24" height="24" version="1.1" viewBox="0 0 24 24" xmlns="http://www.w3.org/2000/svg">
    <g transform="translate(-.35151 -2.3112)">
        <path id="Shape" d="m12.352 2.3112a12 12 0 0 0-1.1367 0.054687 12 12 0 0 0-1.0957 0.15625c-0.01368 0.0026-0.02737 0.00517-0.04102 0.00781a12 12 0 0 0-1.0059 0.24024v0.00195c-1.8265 0.52003-3.5198 1.4681-4.9277 2.7891l-2.4336-2.4336c-0.15667-0.15667-0.29073-0.29741-0.4668-0.27344-0.14911 0.020307-0.29734 0.15322-0.30664 0.32812l-0.30469 6.6328c-0.00707 0.13415-0.013019 0.25782-0.013672 0.35156-0.00101 0.14268-0.039799 0.37036 0.125 0.53516 0.15904 0.15899 0.37889 0.13988 0.5625 0.15039 0.093748-6.8e-4 0.21546-0.0046 0.34961-0.01172l6.6348-0.30664c0.17491-0.0093 0.30824-0.15667 0.32812-0.30664 0.023358-0.17619-0.11873-0.31013-0.27539-0.4668l-2.5957-2.5957c1.1098-1.0257 2.4307-1.7695 3.8574-2.1895 0.00911-0.00268 0.018244-0.00517 0.027344-0.00781 0.26391-0.076834 0.5325-0.14294 0.80273-0.19727a9.7323 9.7323 0 0 1 0.09961-0.019531c0.26742-0.050861 0.53654-0.090817 0.80859-0.11914a9.7323 9.7323 0 0 1 0.02344-0.00195 9.7323 9.7323 0 0 1 0.04297-0.00391c0.28772-0.027969 0.57789-0.044735 0.86914-0.046875 0.02408-8.96e-5 0.04819-8.96e-5 0.07227 0 0.33068-5e-6 0.65631 0.018594 0.97852 0.050781 0.0051 5.13e-4 0.01053-5.208e-4 0.01563 0a9.7323 9.7323 0 0 1 0.01367 0.00195c0.29332 0.030198 0.58221 0.075187 0.86719 0.13086a9.7323 9.7323 0 0 1 0.16992 0.035156c0.26275 0.056239 0.52096 0.12224 0.77539 0.19922a9.7323 9.7323 0 0 1 0.02344 0.00781 9.7323 9.7323 0 0 1 0.14062 0.044922c0.25188 0.081158 0.49973 0.17277 0.74219 0.27344a9.7323 9.7323 0 0 1 0.09766 0.039063 9.7323 9.7323 0 0 1 0.0039 0.00195c0.26919 0.11535 0.53303 0.24257 0.78906 0.38086 0.0069 0.00372 0.01458 0.00603 0.02148 0.00977a9.7323 9.7323 0 0 1 0.01953 0.011719c0.25251 0.13794 0.49803 0.28628 0.73633 0.44531a9.7323 9.7323 0 0 1 0.08789 0.060547c0.23829 0.16283 0.46898 0.33477 0.69141 0.51758 5e-3 0.00412 0.01063 0.00756 0.01563 0.011719a9.7323 9.7323 0 0 1 0.01367 0.013672c0.23427 0.19411 0.46085 0.39842 0.67578 0.61328l2e-3 0.00195a9.7323 9.7323 0 0 1 0.0039 0.00391c0.21124 0.21148 0.41235 0.43396 0.60352 0.66406 0.0068 0.00816 0.01478 0.015278 0.02148 0.023438a9.7323 9.7323 0 0 1 0.01563 0.019531c0.17766 0.21639 0.34512 0.44045 0.50391 0.67188 0.0035 0.00506 0.0063 0.010555 0.0098 0.015625a9.7323 9.7323 0 0 1 0.07031 0.10742c0.14742 0.22196 0.28683 0.44934 0.41602 0.68359a9.7323 9.7323 0 0 1 0.04883 0.089844 9.7323 9.7323 0 0 1 0.0039 0.00781c0.13007 0.24239 0.24979 0.49196 0.35938 0.74609a9.7323 9.7323 0 0 1 0.05664 0.13281c0.09732 0.23529 0.1847 0.47459 0.26367 0.71875a9.7323 9.7323 0 0 1 0.06055 0.19531c0.07785 0.25939 0.1469 0.52314 0.20312 0.79102a9.7323 9.7323 0 0 1 0.01758 0.08203c0.05976 0.29728 0.10667 0.59984 0.13867 0.90625a9.7323 9.7323 0 0 1 0.0059 0.06055c0.03107 0.31655 0.04883 0.6362 0.04883 0.96094 0 0.32474-0.01776 0.64632-0.04883 0.96289a9.7323 9.7323 0 0 1-0.0059 0.05273c-0.0316 0.30505-0.07759 0.60438-0.13672 0.90039a9.7323 9.7323 0 0 1-0.01953 0.09375c-0.05711 0.27189-0.12579 0.53972-0.20508 0.80274a9.7323 9.7323 0 0 1-0.05664 0.17969c-0.0787 0.24374-0.16668 0.48385-0.26367 0.71875a9.7323 9.7323 0 0 1-0.04883 0.11719 9.7323 9.7323 0 0 1-0.0078 0.01953c-0.11181 0.25948-0.23403 0.51255-0.36719 0.75977a9.7323 9.7323 0 0 1-0.03906 0.07031c-0.13938 0.25372-0.2885 0.50095-0.44922 0.74024a9.7323 9.7323 0 0 1-0.01367 0.02148v2e-3a9.7323 9.7323 0 0 1-0.02148 0.0293c-0.16306 0.2397-0.33613 0.47164-0.51953 0.69531a9.7323 9.7323 0 0 1-0.04297 0.05469c-0.18984 0.22818-0.39 0.44836-0.59961 0.6582l-0.0039 0.0039a9.7323 9.7323 0 0 1-0.0078 0.0059c-0.21808 0.21764-0.44575 0.42482-0.68359 0.62109-0.23461 0.19362-0.47815 0.37559-0.73047 0.54688a9.7323 9.7323 0 0 1-0.04883 0.0332c-0.23293 0.15612-0.47413 0.3016-0.7207 0.4375a9.7323 9.7323 0 0 1-0.08789 0.04883 9.7323 9.7323 0 0 1-0.0078 0.0039c-0.24238 0.13009-0.49196 0.24979-0.74609 0.35938a9.7323 9.7323 0 0 1-0.12891 0.05469c-0.25712 0.10648-0.5194 0.20259-0.78711 0.28711a9.7323 9.7323 0 0 1-0.01953 0.0059 9.7323 9.7323 0 0 1-0.07617 0.02149c-0.27168 0.08271-0.54693 0.15583-0.82812 0.21484a9.7323 9.7323 0 0 1-0.08008 0.01758c-0.30175 0.06066-0.60875 0.10663-0.91992 0.13867-0.0046 5e-4 -9e-3 0.0015-0.01367 2e-3a9.7323 9.7323 0 0 1-0.01172 0c-0.32344 0.03247-0.65043 0.05079-0.98242 0.05078-0.42127-1e-5 -0.83852-0.02683-1.25-0.08008l-0.0293-0.0039c-0.40845-0.05411-0.81065-0.13605-1.2051-0.24023-0.00843-0.0022-0.01699-0.0036-0.02539-0.0059-0.39384-0.10526-0.77901-0.23418-1.1544-0.38684-0.00979-4e-3 -0.019497-0.0077-0.029297-0.01172-0.36897-0.1515-0.73124-0.32454-1.0781-0.51953a9.7323 9.7323 0 0 1-0.015625-0.0078c-0.00786-0.0044-0.015638-0.0092-0.023437-0.01367-0.35485-0.2016-0.69609-0.42692-1.0234-0.67188-0.32748-0.24506-0.63995-0.51088-0.93555-0.79687-0.00665-0.0064-0.012831-0.01303-0.019531-0.01953-0.29321-0.28531-0.57082-0.58881-0.82812-0.91211-0.00442-0.0055-0.00732-0.01208-0.011719-0.01758-0.25837-0.32612-0.49729-0.6711-0.71484-1.0332l-0.00195-2e-3a9.7323 9.7323 0 0 1-1.3887-5.0098 9.7323 9.7323 0 0 1 0.00195-0.07813h-2.2695a12 12 0 0 0 0 0.07813 12 12 0 0 0 1.6133 6.0098 12 12 0 0 0 0.41406 0.66602c0.00703 0.01051 0.014384 0.02078 0.021484 0.03125a12 12 0 0 0 0.4375 0.60742 12 12 0 0 0 0.011719 0.01563c0.0017 0.0022 0.00416 0.0037 0.00586 0.0059a12 12 0 0 0 0.46484 0.56641c0.01884 0.02154 0.037651 0.04306 0.056641 0.06445a12 12 0 0 0 0.017578 0.01953 12 12 0 0 0 0.48242 0.50977c0.00977 0.0098 0.019497 0.0196 0.029297 0.0293a12 12 0 0 0 0.51758 0.48242 12 12 0 0 0 0.00391 0.0039c0.0267 0.02347 0.053188 0.04709 0.080078 0.07031a12 12 0 0 0 0.5293 0.42969c0.01549 0.01191 0.029382 0.02333 0.044922 0.03516a12 12 0 0 0 0.021484 0.01758 12 12 0 0 0 0.55859 0.39844c0.02778 0.01863 0.056054 0.03628 0.083984 0.05469a12 12 0 0 0 0.60938 0.37695 12 12 0 0 0 0.65039 0.34766c0.01957 0.0098 0.038974 0.0197 0.058594 0.0293a12 12 0 0 0 0.021484 0.01172 12 12 0 0 0 0.66211 0.29883 12 12 0 0 0 0.71484 0.26953c0.01247 0.0043 0.024599 0.0094 0.037109 0.01367a12 12 0 0 0 0.71094 0.2168c0.00597 0.0016 0.011578 0.0043 0.017578 0.0059a12 12 0 0 0 0.70312 0.16406c0.03326 0.0068 0.06626 0.01498 0.09961 0.02148a12 12 0 0 0 0.71289 0.11719c0.0156 0.0021 0.03125 0.0038 0.04687 0.0059a12 12 0 0 0 0.72461 0.07422c0.01243 9e-4 0.02464 0.0031 0.03711 0.0039a12 12 0 0 0 0.0098 0c0.0046 2.97e-4 0.0092-2.93e-4 0.01367 0a12 12 0 0 0 0.77539 0.02539 12 12 0 0 0 1.207-0.0625 12 12 0 0 0 0.01953 0c0.0079-8e-4 0.01554-0.0031 0.02344-0.0039a12 12 0 0 0 1.127-0.17188c0.03201-0.0064 0.06379-0.01283 0.0957-0.01953a12 12 0 0 0 1.0059-0.25781c0.05628-0.01701 0.11204-0.03492 0.16797-0.05273a12 12 0 0 0 0.96484-0.35352c0.04184-0.01742 0.08341-0.03485 0.125-0.05273a12 12 0 0 0 0.91797-0.44141c0.04193-0.02245 0.08337-0.04543 0.125-0.06836a12 12 0 0 0 0.89453-0.54297c0.0234-0.01567 0.04703-0.03103 0.07031-0.04687a12 12 0 0 0 0.88086-0.66016 12 12 0 0 0 0.0078-0.0059c0.0028-0.0023 5e-3 -0.0055 0.0078-0.0078a12 12 0 0 0 0.83789-0.75977 12 12 0 0 0 0.0059-0.0059l0.0078-0.0078a12 12 0 0 0 0.75195-0.83008 12 12 0 0 0 0.01563-0.01563c0.0068-0.0082 0.01273-0.01709 0.01953-0.02539a12 12 0 0 0 0.65234-0.875c0.0119-0.01749 0.02337-0.03514 0.03516-0.05274a12 12 0 0 0 0.56055-0.92188c0.01667-0.03042 0.03239-0.0612 0.04883-0.0918a12 12 0 0 0 0.44727-0.92578 12 12 0 0 0 0.0039-0.0039c0.02283-0.05307 0.04433-0.1067 0.06641-0.16016a12 12 0 0 0 0.35352-0.96875c0.0102-0.03235 0.0194-0.06518 0.0293-0.09766a12 12 0 0 0 0.26562-1.0312c0.0097-0.04607 0.01824-0.0924 0.02734-0.13867a12 12 0 0 0 0.16602-1.0898c0.0016-0.01564 0.0043-0.03119 0.0059-0.04687a12 12 0 0 0 0.06055-1.2031 12 12 0 0 0-0.06055-1.2031c-0.0021-0.02094-0.0056-0.04158-0.0078-0.0625a12 12 0 0 0-0.16602-1.082c-0.0093-0.04693-0.01754-0.09389-0.02734-0.14062a12 12 0 0 0-0.26367-1.0176c-0.01357-0.04443-0.02695-0.0886-0.04102-0.13281a12 12 0 0 0-0.35165-0.96097c-0.01954-0.046995-0.03848-0.093936-0.05859-0.14062a12 12 0 0 0-0.45508-0.94336c-0.01206-0.022337-0.02493-0.044156-0.03711-0.066406a12 12 0 0 0-0.56641-0.93359 12 12 0 0 0-0.01563-0.025391c-5e-3 -0.00737-0.01073-0.014154-0.01563-0.021484a12 12 0 0 0-0.65233-0.87305c-0.01731-0.021128-0.03525-0.041497-0.05273-0.0625a12 12 0 0 0-0.74414-0.81836 12 12 0 0 0-0.82617-0.75195c-0.01746-0.014513-0.03518-0.028573-0.05273-0.042969a12 12 0 0 0-0.83203-0.625 12 12 0 0 0-0.01758-0.011719c-0.03492-0.023849-0.07028-0.046826-0.10547-0.070312a12 12 0 0 0-0.9043-0.54883c-0.02249-0.012284-0.04579-0.023023-0.06836-0.035156a12 12 0 0 0-0.93945-0.45312 12 12 0 0 0-0.0039-0.00195c-0.05443-0.023407-0.10923-0.045739-0.16406-0.068359a12 12 0 0 0-0.92579-0.33985h-2e-3c-0.05963-0.018985-0.11966-0.036614-0.17969-0.054687a12 12 0 0 0-0.98628-0.25195c-0.03839-0.00806-0.0767-0.015737-0.11524-0.023437a12 12 0 0 0-1.1094-0.16992c-0.01693-0.00176-0.03383-0.00417-0.05078-0.00586a12 12 0 0 0-1.1992-0.060547zm0.27539 5.5c-0.70711 0-1.2734 0.56828-1.2734 1.2754v5.7012c0 0.19181 0.03353 0.35143 0.10156 0.51172 0.05736 0.13521 0.15277 0.25945 0.25 0.36328 0.83097 0.84196 1.6774 1.6813 2.3887 2.3926 0.49999 0.49999 1.3027 0.49999 1.8027 0 0.49999-0.5 0.49999-1.3047 0-1.8047l-1.9922-1.9922v-5.1719c1e-6 -0.70711-0.57023-1.2754-1.2773-1.2754z" style="stroke-dasharray:30.24, 15.11999999999999922;stroke-dashoffset:24.948;stroke-linejoin:round;stroke-width:3.78"/>
    </g>
</svg>
