<svg width="24" height="24" version="1.1" viewBox="0 0 6.3501 6.35" xmlns="http://www.w3.org/2000/svg">
    <g transform="translate(.65763 .24092)">
        <path id="core-a" d="m2.506-0.24092c-0.14002 0-0.21964 0.11598-0.27983 0.17828-0.039547 0.04094-0.090204 0.096358-0.14418 0.15761l-2.6882 3.0096c-0.070373 0.079867-0.063765 0.20041-0.00904 0.27389 0.064611 0.086752 0.1816 0.084749 0.31471 0.084749h0.51573v2.3151c0 0.18322 0.13891 0.33073 0.31161 0.33073h1.247c0.1727 0 0.31161-0.1475 0.31161-0.33073v-1.1684h0.00207v-0.21058c0-0.11521 0.086035-0.208 0.19301-0.208h0.47387c0.10698 0 0.19301 0.092792 0.19301 0.208v0.21058h0.00207v1.1684c0 0.19563 0.13891 0.33073 0.31161 0.33073h1.247c0.1727 0 0.31161-0.1475 0.31161-0.33073v-2.3151h0.51496c0.13311 0 0.25004 0.00335 0.31497-0.083199 0.05526-0.073662 0.06185-0.19557-0.0085-0.27544l-2.688-3.0096c-0.053973-0.061255-0.10463-0.11667-0.14418-0.15761-0.082457-0.075064-0.1677-0.17828-0.30282-0.17828z" style="color-rendering:auto;color:#000000;dominant-baseline:auto;font-feature-settings:normal;font-variant-alternates:normal;font-variant-caps:normal;font-variant-east-asian:normal;font-variant-ligatures:normal;font-variant-numeric:normal;font-variant-position:normal;font-variation-settings:normal;image-rendering:auto;inline-size:0;isolation:auto;mix-blend-mode:normal;shape-margin:0;shape-padding:0;shape-rendering:auto;solid-color:#000000;stop-color:#000000;text-decoration-color:#000000;text-decoration-line:none;text-decoration-style:solid;text-indent:0;text-orientation:mixed;text-transform:none;white-space:normal"/>
    </g>
</svg>
