<svg id="Core" version="1.1" viewBox="0 0 24 23.998" xmlns="http://www.w3.org/2000/svg">
    <g transform="translate(-.18625 -2.2957)">
        <path id="Shape" d="m12.143 2.2957c-0.5292 0-0.82915 0.4384-1.0566 0.67388-0.14947 0.15474-0.34092 0.36423-0.54492 0.59575l-10.16 11.374c-0.26598 0.30188-0.24198 0.7575-0.035156 1.0352 0.2442 0.32794 0.68637 0.32034 1.1895 0.32034h1.9492v8.7507c0 0.69253 0.52502 1.2501 1.1777 1.2501h4.2715c0.67803 0 1.1777-0.53212 1.1777-1.2501 0 0 0.01172-3.5916 0.01172-5.3227 0-0.43547 0.32616-0.78522 0.73047-0.78522h2.3848c0.40433 0 0.72852 0.34976 0.72852 0.78522 0.0019 1.3664 0.0625 3.5598 0.0625 5.3227 0.02615 0.73898 0.52502 1.2501 1.1777 1.2501h4.502c0.65272 0 1.1777-0.55753 1.1777-1.2501v-8.7507h1.9473c0.50309 0 0.94405 0.01265 1.1895-0.31448 0.20885-0.27842 0.23464-0.73921-0.03125-1.0411l-10.16-11.374c-0.20399-0.23153-0.39544-0.44101-0.54492-0.59575-0.31164-0.28373-0.63385-0.67388-1.1445-0.67388z" style="stroke-dasharray:30.2412, 15.12059999999999960;stroke-dashoffset:24.949;stroke-linejoin:round;stroke-width:3.7802"/>
    </g>
</svg>
