<svg width="24" height="24" version="1.1" viewBox="0 0 6.35 6.35" xmlns="http://www.w3.org/2000/svg">
    <g transform="translate(.48834 -.33203)">
        <path id="core-a" d="m2.6867 0.33203a3.175 3.175 0 0 0-3.175 3.175 3.175 3.175 0 0 0 3.175 3.175 3.175 3.175 0 0 0 3.175-3.175 3.175 3.175 0 0 0-3.175-3.175zm-0.01912 0.59996a2.575 2.575 0 0 1 0.01912 0 2.575 2.575 0 0 1 2.575 2.575 2.575 2.575 0 0 1-2.575 2.575 2.575 2.575 0 0 1-2.575-2.575 2.575 2.575 0 0 1 2.5559-2.575z" style="stroke-width:.26458"/>
        <path id="core-b" d="m2.6073 3.1164h0.15875c0.1759 0 0.3175 0.14119 0.3175 0.31657v1.4774c0 0.17538-0.1416 0.31657-0.3175 0.31657h-0.15875c-0.1759 0-0.3175-0.14119-0.3175-0.31657v-1.4774c0-0.17538 0.1416-0.31657 0.3175-0.31657z" style="stroke-width:.2642"/>
        <path id="core-c" d="m2.6073 1.7873h0.15875c0.1759 0 0.3175 0.14119 0.3175 0.31657v0.15829c0 0.17538-0.1416 0.31657-0.3175 0.31657h-0.15875c-0.1759 0-0.3175-0.14119-0.3175-0.31657v-0.15829c0-0.17538 0.1416-0.31657 0.3175-0.31657z" style="stroke-width:.2642"/>
    </g>
</svg>
