<svg id="Core" version="1.1" viewBox="0 0 24 23.998" xmlns="http://www.w3.org/2000/svg">
    <g transform="translate(-.18625 -2.2957)">
        <path id="Shape" d="m12.186 2.2957a12 12 0 0 0-12 12 12 12 0 0 0 12 12 12 12 0 0 0 12-12 12 12 0 0 0-12-12zm-0.07422 2.2676a9.7323 9.7323 0 0 1 2e-3 0 9.7323 9.7323 0 0 1 0.07226 0 9.7323 9.7323 0 0 1 9.7324 9.7324 9.7323 9.7323 0 0 1-9.7324 9.7324 9.7323 9.7323 0 0 1-9.7325-9.7324 9.7323 9.7323 0 0 1 9.6582-9.7324zm-0.22656 3.2324c-0.66482 0-1.1992 0.53246-1.1992 1.1953v0.59961c0 0.66285 0.5344 1.1953 1.1992 1.1953h0.59961c0.66482 0 1.2012-0.53246 1.2012-1.1953v-0.59961c0-0.66285-0.53635-1.1953-1.2012-1.1953zm0 5.0234c-0.66482 0-1.1992 0.53246-1.1992 1.1953v5.584c0 0.66285 0.5344 1.1973 1.1992 1.1973h0.59961c0.66482 0 1.2012-0.53441 1.2012-1.1973v-5.584c0-0.66285-0.53635-1.1953-1.2012-1.1953z" style="stroke-dasharray:30.24, 15.11999999999999922;stroke-dashoffset:24.948;stroke-linejoin:round;stroke-width:3.78"/>
    </g>
</svg>
