<svg id="Core" width="24" height="24" version="1.1" viewBox="0 0 24 24" xmlns="http://www.w3.org/2000/svg">
    <g transform="translate(-.39242 -2.59)">
        <path id="Shape" d="m3.1229 2.59c-1.4401 0-2.6017 1.0965-2.7305 2.5h2.0371c0.40995-0.31235 0.90891-0.5 1.4492-0.5h16.992c0.54028 0 1.0392 0.18764 1.4492 0.5h2.0723c-0.12884-1.4034-1.2905-2.5-2.7305-2.5zm0 5c-1.4401 0-2.6017 1.0965-2.7305 2.5h2.0371c0.40995-0.31235 0.90891-0.5 1.4492-0.5h16.992c0.54028 0 1.0392 0.18764 1.4492 0.5h2.0723c-0.12884-1.4034-1.2905-2.5-2.7305-2.5zm0.019531 5c-1.5235 0-2.75 1.2265-2.75 2.75v8.5c-1e-8 1.5235 1.2265 2.75 2.75 2.75h18.5c1.5235 0 2.75-1.2265 2.75-2.75v-8.5c0-1.5235-1.2265-2.75-2.75-2.75zm4.8906 2.6387c0.448 0 0.87146 0.05225 1.2715 0.15625 0.408 0.104 0.83348 0.25136 1.2734 0.44336l-0.58789 1.416c-0.392-0.16-0.74468-0.28505-1.0566-0.37305s-0.63294-0.13086-0.96094-0.13086c-0.344 0-0.60702 0.08023-0.79102 0.24024-0.184 0.16-0.27539 0.36704-0.27539 0.62305 0 0.304 0.13425 0.5447 0.40625 0.7207 0.272 0.176 0.67688 0.39244 1.2129 0.64844 0.44 0.208 0.81126 0.42248 1.1152 0.64648 0.312 0.224 0.5527 0.48897 0.7207 0.79297 0.168 0.304 0.25195 0.6789 0.25195 1.127 0 0.76-0.27612 1.3682-0.82812 1.8242-0.544 0.448-1.3201 0.67188-2.3281 0.67188-0.904 0-1.7118-0.17162-2.4238-0.51562v-1.6914c0.408 0.176 0.82774 0.34019 1.2598 0.49219 0.44 0.144 0.87658 0.21484 1.3086 0.21484 0.448 0 0.76326-0.08395 0.94727-0.25195 0.192-0.176 0.28906-0.39616 0.28906-0.66016 0-0.216-0.076516-0.39878-0.22852-0.55078-0.144-0.152-0.33989-0.29192-0.58789-0.41992-0.248-0.136-0.53156-0.27964-0.85156-0.43164-0.2-0.096-0.41644-0.20794-0.64844-0.33594-0.232-0.136-0.45588-0.30019-0.67188-0.49219-0.208-0.2-0.37962-0.4407-0.51562-0.7207-0.136-0.28-0.20508-0.61582-0.20508-1.0078 0-0.768 0.26125-1.3651 0.78125-1.7891 0.52-0.432 1.227-0.64648 2.123-0.64648zm8.3496 1.832h1.2832v2.2793h2.2695v1.2832h-2.2695v2.2559h-1.2832v-2.2559h-2.2676v-1.2832h2.2676z" style="stroke-dasharray:30.24, 15.11999999999999922;stroke-dashoffset:24.948;stroke-linejoin:round;stroke-width:3.78"/>
    </g>
</svg>
