<svg id="core-b" version="1.1" viewBox="0 0 24 24.001" xmlns="http://www.w3.org/2000/svg">
  <g transform="translate(3.1336)">
    <g transform="matrix(1.2543 0 0 1.2543 .797 0)">
      <path id="core-c" d="m2.4902 0c-1.3796 0-2.4902 1.1126-2.4902 2.4922v11.018c0 1.3796 1.1106 2.4902 2.4902 2.4902h11.02c1.3796 0 2.4902-1.1106 2.4902-2.4902v-8.0098c0-1.5284-1.2315-2.7676-2.7598-2.7578h-4.5508l-1.5469-2.7422zm3.5098 6.002c0.030831-0.00143 0.072034-0.00145 0.099609 0.00195 0.041467 0.00513 0.082344 0.01524 0.12109 0.033203 0.15685 0.072566 4.0176 2.4766 4.0176 2.4766 0.08362 0.051361 0.15894 0.099078 0.21484 0.13672 0.15397 0.11789 0.20354 0.19897 0.21094 0.33203v0.046875c-0.0074 0.13306-0.04917 0.21805-0.20312 0.33594-0.0572 0.038523-0.15959 0.1106-0.21484 0.14453 0 0-3.8685 2.3806-4.0254 2.4531-0.038747 0.01797-0.079626 0.03006-0.12109 0.03516-0.027572 0.003399-0.068778 0.003352-0.099609 0.001952-0.092522-0.0069-0.17247-0.027931-0.23242-0.087891-0.10176-0.10177-0.10156-0.17085-0.10156-0.23047 0-0.05235-0.00195-2.6719-0.00195-2.6719v-0.019531s0.00195-2.6176 0.00195-2.6699c0-0.059622-1.913e-4 -0.1287 0.10156-0.23047 0.059952-0.059963 0.1399-0.080991 0.23242-0.087891z" style="stroke-width:.66666"/>
      <path id="core-d" d="m-1.0887 3.1791c-1.1652 0.20948-2.0449 1.2201-2.0449 2.4473v11.018c0 1.3796 1.1106 2.4902 2.4902 2.4902h11.02c1.2272 0 2.2362-0.87972 2.4453-2.0449-0.1447 0.02597-0.29291 0.04492-0.44531 0.04492h-11.02c-1.3796 2e-6 -2.4902-1.1106-2.4902-2.4902v-11.018c0-0.15306 0.01873-0.30193 0.04492-0.44727z" style="stroke-width:.66666"/>
    </g>
  </g>
</svg>
