<svg id="Core" version="1.1" viewBox="0 0 23.999 23.993" xmlns="http://www.w3.org/2000/svg">
    <g transform="translate(-.27469 -2.4014)">
        <path id="Shape" d="m10.283 2.4014c-0.29265 0.17368-0.58106 0.40196-0.83982 0.67205-0.52789 0.55102-0.93207 1.2264-1.0625 1.7407 3.158-0.76973 7.057 0.60442 9.9646 3.5126 2.9094 2.9133 4.2822 6.8211 3.5077 9.9831 0.78759-0.20972 1.9305-1.0447 2.4218-1.9458-0.039695-3.392-1.563-6.9388-4.2909-9.6705-2.7398-2.7398-6.2998-4.2633-9.7009-4.2921zm-1.582 4.5383c-0.23567 0.14184-0.47008 0.32849-0.67967 0.54702-0.42757 0.44583-0.75762 0.99039-0.86717 1.4027 2.5316-0.64796 5.6339 0.41007 7.9275 2.7038 2.2948 2.2977 3.3509 5.4049 2.6992 7.9396 0.63157-0.17579 1.553-0.85526 1.955-1.5805 0.0035-2.7102-1.1764-5.5268-3.328-7.6817-2.161-2.161-4.9893-3.3433-7.7068-3.3309zm-0.61717 4.3957c-0.26367-0.01091-0.52901-0.0078-0.79295 0.0098-0.18991 0.12156-0.37937 0.27728-0.55272 0.45715-0.35364 0.36697-0.63718 0.80551-0.74217 1.1312 1.9979-0.62558 4.3563 0.04617 6.0272 1.7172 1.6717 1.6741 2.3434 4.0362 1.7148 6.0367 0.49908-0.16705 1.2464-0.73791 1.5937-1.3207 0.13351-2.1055-0.64746-4.2382-2.2148-5.8082-1.3776-1.3775-3.1874-2.1466-5.0331-2.2232zm-2.2246 3.8389a5.612 5.6136 0 0 0-3.9413 1.645 5.612 5.6136 0 0 0 0 7.9376 5.612 5.6136 0 0 0 7.9373 0 5.612 5.6136 0 0 0 0-7.9376 5.612 5.6136 0 0 0-3.9452-1.645 5.612 5.6136 0 0 0-0.05078 0zm-1.832 2.3991h1.4882v5.0384h2.4765v1.2171h-3.9647z" style="stroke-dasharray:30.2435, 15.12180000000000035;stroke-dashoffset:24.951;stroke-linejoin:round;stroke-width:3.7804"/>
    </g>
</svg>
