<svg id="Core" version="1.1" viewBox="0 0 24 24" xmlns="http://www.w3.org/2000/svg">
    <g transform="translate(-.28597 -2.3233)">
        <path id="Shape" transform="translate(.28597 2.3233)" d="m11.953 0.0078125a8 10 0 0 0-7.9121 8.9922h-1.9238c-1.173 0-2.1172 0.88465-2.1172 1.9844v11.031c-2.9606e-16 1.0997 0.94415 1.9844 2.1172 1.9844h19.766c1.173 0 2.1172-0.88465 2.1172-1.9844v-11.031c0-1.0997-0.94415-1.9844-2.1172-1.9844h-1.9238a8 10 0 0 0-7.959-8.9922 8 10 0 0 0-0.046875 0zm0.046875 2.4688a5.5 6.5 0 0 1 5.5 6.5 5.5 6.5 0 0 1 0 0.023438h-11a5.5 6.5 0 0 1 0-0.023438 5.5 6.5 0 0 1 5.5-6.5z" style="fill-opacity:.95782;stroke-dasharray:31.0197, 15.50980000000000025;stroke-dashoffset:25.591;stroke-linejoin:round;stroke-width:3.8774"/>
    </g>
</svg>
