<svg width="24" height="24" version="1.1" viewBox="0 0 6.35 6.35" xmlns="http://www.w3.org/2000/svg">
    <g transform="translate(.16621 -.38305)">
        <path id="core-a" d="m3.0088 0.38305a2.598 2.5974 0 0 0-2.5814 2.3094h-0.11895c-0.2628 0-0.47467 0.21129-0.47467 0.47407v3.0919c0 0.26277 0.21188 0.47463 0.47467 0.47463h5.4012c0.2628 0 0.47411-0.21186 0.47411-0.47463v-3.0919c0-0.26277-0.21131-0.47407-0.47411-0.47407h-0.11895a2.598 2.5974 0 0 0-2.5819-2.3094zm0 0.53664a2.0612 2.0607 0 0 1 2.0407 1.7728h-4.0815a2.0612 2.0607 0 0 1 2.0407-1.7728z" style="image-rendering:optimizeQuality;stroke-opacity:0"/>
    </g>
</svg>
