<svg id="Core" width="24" height="24" version="1.1" viewBox="0 0 24 24" xmlns="http://www.w3.org/2000/svg">
    <g transform="translate(-.28597 -2.3233)">
        <path id="Shape" d="m2.786 2.3233c-1.385 0-2.5 1.115-2.5 2.5 0 1.385 1.115 2.5 2.5 2.5h19c1.385 0 2.5-1.115 2.5-2.5 0-1.385-1.115-2.5-2.5-2.5zm0 9.5c-1.385 0-2.5 1.115-2.5 2.5s1.115 2.5 2.5 2.5h19c1.385 0 2.5-1.115 2.5-2.5s-1.115-2.5-2.5-2.5zm0 9.5c-1.385 0-2.5 1.115-2.5 2.5s1.115 2.5 2.5 2.5h19c1.385 0 2.5-1.115 2.5-2.5s-1.115-2.5-2.5-2.5z" style="stroke-dasharray:30.24, 15.11999999999999922;stroke-dashoffset:24.948;stroke-linejoin:round;stroke-width:3.78"/>
    </g>
</svg>
