<svg width="24" height="24" version="1.1" viewBox="0 0 6.35 6.35" xmlns="http://www.w3.org/2000/svg">
    <g transform="translate(.14747 .20007)">
        <path id="core-a" d="m4.8796 6.1499v-0.88212c0-0.2443 0.1965-0.4408 0.4408-0.4408h0.88212v-1.0583h-1.7198c-0.36645 0-0.66146 0.29501-0.66146 0.66146v1.7198z" style="stroke-width:.26458"/>
        <path id="core-b" d="m2.2338 6.1499v-1.7198c0-0.36645-0.29501-0.66146-0.66146-0.66146h-1.7198v1.0583h0.88212c0.2443 0 0.4408 0.1965 0.4408 0.4408v0.88212z" style="stroke-width:.26458"/>
        <path id="core-c" d="m6.2025 2.1812v-1.0583h-0.88212c-0.2443 0-0.4408-0.1965-0.4408-0.4408v-0.88212h-1.0583v1.7198c0 0.36645 0.29501 0.66146 0.66146 0.66146z" style="stroke-width:.26458"/>
        <path id="core-d" d="m1.5723 2.1812c0.36645 0 0.66146-0.29501 0.66146-0.66146v-1.7198h-1.0583v0.88212c0 0.2443-0.1965 0.4408-0.4408 0.4408h-0.88212v1.0583z" style="stroke-width:.26458"/>
    </g>
</svg>
