<svg id="Core" version="1.1" viewBox="0 0 24 24" xmlns="http://www.w3.org/2000/svg">
    <g transform="translate(-23.925 -4.4557)">
        <path id="Shape" d="m28.925 4.4557v3.334c0 0.92334-0.74268 1.666-1.666 1.666h-3.334v4h6.5c1.385 0 2.5-1.115 2.5-2.5v-6.5zm10 0v6.5c-3e-6 1.385 1.115 2.5 2.5 2.5h6.5v-4h-3.334c-0.92334 0-1.666-0.74268-1.666-1.666v-3.334zm-15 15v4h3.334c0.92334 0 1.666 0.74268 1.666 1.666v3.334h4v-6.5c0-1.385-1.115-2.5-2.5-2.5zm17.5 0c-1.385 0-2.5 1.115-2.5 2.5v6.5h4v-3.334c0-0.92334 0.74268-1.666 1.666-1.666h3.334v-4z" style="stroke-dasharray:30.24, 15.11999999999999922;stroke-dashoffset:24.948;stroke-linejoin:round;stroke-width:3.78"/>
    </g>
</svg>
