<svg width="24" height="18" version="1.1" viewBox="0 0 6.35 4.7625" xmlns="http://www.w3.org/2000/svg">
    <g transform="translate(.14912 -.51891)">
        <path id="core-a" d="m3.2391 0.52002c0.0197-0.0018 0.0396-0.00151 0.05938 0.00155 0.02637 0.00408 0.05259 0.012876 0.07724 0.02713 0.09962 0.057619 2.5538 1.9716 2.5538 1.9716 0.05318 0.040763 0.10146 0.079039 0.13701 0.10891 0.0979 0.093552 0.12956 0.15756 0.13429 0.26316-1.35e-4 0.00284-9.96e-4 0.00497-0.0012 0.00775 1.81e-4 0.0028 1e-3 0.0049 0.0012 0.00775-0.0047 0.1056-0.03639 0.16961-0.13429 0.26316-0.03555 0.02987-0.08383 0.068145-0.13701 0.10891 0 2e-7 -2.4542 1.914-2.5538 1.9716-0.02465 0.014254-0.05086 0.023052-0.07724 0.02713-0.07912 0.012236-0.16109-0.017535-0.21812-0.0655-0.04963-0.041741-0.05819-0.10144-0.05822-0.18565l-7.68e-4 -2.0503c-0.01511 0.068285-0.05089 0.12262-0.12536 0.19379-0.03555 0.02987-0.08382 0.068145-0.13701 0.10891 0 2e-7 -2.4542 1.914-2.5538 1.9716-0.024652 0.014254-0.050862 0.023052-0.077236 0.02713-0.07912 0.012236-0.16109-0.017535-0.21812-0.0655-0.049634-0.041741-0.058187-0.10144-0.058218-0.18565l-7.725e-4 -2.1196v-0.0155l7.728e-4 -2.1196c3.08e-5 -0.084205 0.00858-0.14391 0.058218-0.18565 0.042776-0.035974 0.099635-0.061643 0.15874-0.06705 0.019702-0.0018 0.039602-0.00151 0.059382 0.00155 0.026374 0.00408 0.052592 0.012876 0.077236 0.02713 0.099613 0.057618 2.5538 1.9716 2.5538 1.9716 0.05318 0.040763 0.10146 0.079039 0.13701 0.10891 0.07447 0.071164 0.11025 0.1255 0.12536 0.19379l7.76e-4 -2.0503c3.1e-5 -0.084205 0.0086-0.14391 0.05822-0.18565 0.04278-0.035974 0.09963-0.061643 0.15874-0.06705z" style="color-rendering:auto;color:#000000;dominant-baseline:auto;font-feature-settings:normal;font-variant-alternates:normal;font-variant-caps:normal;font-variant-east-asian:normal;font-variant-ligatures:normal;font-variant-numeric:normal;font-variant-position:normal;font-variation-settings:normal;image-rendering:auto;inline-size:0;isolation:auto;mix-blend-mode:normal;shape-margin:0;shape-padding:0;shape-rendering:auto;solid-color:#000000;stop-color:#000000;stroke-width:.40488;text-decoration-color:#000000;text-decoration-line:none;text-decoration-style:solid;text-indent:0;text-orientation:mixed;text-transform:none;white-space:normal"/>
    </g>
</svg>
