<svg id="Core" version="1.1" viewBox="0 0 24 18.001" xmlns="http://www.w3.org/2000/svg">
    <g transform="translate(-24.275 -7.66)">
        <path id="Shape" d="m25.098 7.6643c-0.22339 0.020436-0.43794 0.11794-0.59961 0.25391-0.1876 0.15776-0.22059 0.38292-0.2207 0.70117l-2e-3 8.0117v0.05859l2e-3 8.0117c1.17e-4 0.31827 0.03311 0.54341 0.2207 0.70117 0.21555 0.18129 0.52518 0.2943 0.82422 0.24805 0.09968-0.01541 0.1998-0.04965 0.29297-0.10352 0.37644-0.2177 9.6523-7.4512 9.6523-7.4512 0.20103-0.15407 0.38322-0.29922 0.51758-0.41211 0.28146-0.26899 0.41555-0.47434 0.47266-0.73242l0.0039 7.75c1.13e-4 0.31827 0.03117 0.54341 0.21875 0.70117 0.21555 0.18129 0.52714 0.2943 0.82617 0.24805 0.0997-0.01541 0.19786-0.04965 0.29102-0.10352 0.37644-0.2177 9.6523-7.4512 9.6523-7.4512 0.201-0.15407 0.38321-0.29921 0.51758-0.41211 0.37001-0.35358 0.49005-0.59502 0.50781-0.99414-7.01e-4 -0.01077-0.0032-0.01872-0.0039-0.0293 7e-4 -0.01051 0.0034-0.01857 0.0039-0.0293-0.01788-0.39912-0.1378-0.64056-0.50781-0.99414-0.13436-0.1129-0.31658-0.25804-0.51758-0.41211 0 0-9.2758-7.2334-9.6523-7.4512-0.09316-0.053878-0.19134-0.088096-0.29102-0.10352-0.07476-0.0116-0.15015-0.012659-0.22461-0.00586-0.22341 0.020436-0.43987 0.11794-0.60156 0.25391-0.18754 0.15776-0.21863 0.38292-0.21875 0.70117l-0.0039 7.75c-0.05711-0.2581-0.19119-0.46345-0.47266-0.73242-0.13436-0.1129-0.31658-0.25804-0.51758-0.41211-1e-6 0-9.2759-7.2334-9.6523-7.4512-0.09314-0.053878-0.19329-0.088096-0.29297-0.10352-0.07476-0.0116-0.15015-0.012659-0.22461-0.00586z" style="stroke-dasharray:30.24, 15.11999999999999922;stroke-dashoffset:24.948;stroke-linejoin:round;stroke-width:3.78"/>
    </g>
</svg>
