<svg id="Core" width="24" height="24" version="1.1" viewBox="0 0 24 24" xmlns="http://www.w3.org/2000/svg">
    <g transform="translate(-23.925 -4.4557)">
        <path id="Shape" d="m43.425 4.4557c-0.83096 0-1.5 0.66909-1.5 1.5001v21c0 0.83102 0.66904 1.5001 1.5 1.5001h3c0.83096 0 1.5-0.66909 1.5-1.5001v-21c0-0.83102-0.66904-1.5001-1.5-1.5001zm-18.404 0.00586c-0.29742 0.027263-0.58359 0.15663-0.79883 0.33792-0.24976 0.21036-0.29281 0.51126-0.29297 0.93562l-0.0039 10.682v0.07813l0.0039 10.68c1.55e-4 0.42435 0.0432 0.72528 0.29297 0.93562 0.287 0.24172 0.69949 0.39175 1.0977 0.3301 0.13271-0.02056 0.26464-0.0649 0.38867-0.13673 0.50127-0.29037 12.852-9.9343 12.852-9.9343 0.26761-0.20542 0.51061-0.39832 0.68945-0.54887 0.49265-0.47145 0.65197-0.79408 0.67578-1.3263-7e-4 -0.01436-5e-3 -0.02498-0.0059-0.03906 9e-4 -0.01406 0.0052-0.02468 0.0059-0.03906-0.02381-0.53215-0.18312-0.85478-0.67578-1.3263-0.17887-0.15052-0.42187-0.34343-0.68945-0.54887 0 0-12.35-9.646-12.852-9.9363-0.124-0.071848-0.25597-0.11619-0.38867-0.13674-0.09953-0.015411-0.19968-0.016904-0.29883-0.00781z" style="stroke-dasharray:30.2411, 15.12059999999999960;stroke-dashoffset:24.949;stroke-linejoin:round;stroke-width:3.7801"/>
    </g>
</svg>
