<svg id="Core" version="1.1" viewBox="0 0 24 24" xmlns="http://www.w3.org/2000/svg">
    <g transform="translate(-25.302 -2.8506)">
        <path id="Shape" d="m37.297 2.8506c-6.6452 0-11.995 5.0668-11.995 11.361v1.2711c0 6.2937 5.3499 11.361 11.995 11.361 2.5341 0 8.0111 0.22102 8.0111-1.6254 0-1.7248-2.1631-1.2374-2.6269-2.9682-0.46375-1.7308 0.9323-2.1577 2.05-2.4571 1.1177-0.2995 2.452-0.86188 3.2258-1.6357 1.0884-1.295 1.2679-2.2109 1.3354-3.7604 0.27382-6.2876-5.3499-11.545-11.995-11.545zm1.1392 2.794a2.2491 2.2492 0 0 1 0.0015 0 2.2491 2.2492 0 0 1 0.03807 0 2.2491 2.2492 0 0 1 2.2491 2.2492 2.2491 2.2492 0 0 1-2.2491 2.2492 2.2491 2.2492 0 0 1-2.2491-2.2492 2.2491 2.2492 0 0 1 2.2095-2.2492zm-6.8307 2.299a2.2491 2.2492 0 0 1 0.0015 0 2.2491 2.2492 0 0 1 0.03807 0 2.2491 2.2492 0 0 1 2.2491 2.2492 2.2491 2.2492 0 0 1-2.2491 2.2492 2.2491 2.2492 0 0 1-2.2491-2.2492 2.2491 2.2492 0 0 1 2.2095-2.2492zm12.578 1.807a2.2491 2.2492 0 0 1 0.0015 0 2.2491 2.2492 0 0 1 0.03807 0 2.2491 2.2492 0 0 1 2.2491 2.2492 2.2491 2.2492 0 0 1-2.2491 2.2492 2.2491 2.2492 0 0 1-2.2491-2.2492 2.2491 2.2492 0 0 1 2.2095-2.2492zm-13.887 4.7138a2.2491 2.2492 0 0 1 0.03953 0 2.2491 2.2492 0 0 1 2.2491 2.2492 2.2491 2.2492 0 0 1-2.2491 2.2492 2.2491 2.2492 0 0 1-2.2491-2.2492 2.2491 2.2492 0 0 1 2.2095-2.2492z" style="stroke-linejoin:round;stroke-width:16.845"/>
    </g>
</svg>
