<svg width="24" height="24" version="1.1" viewBox="0 0 6.35 6.35" xmlns="http://www.w3.org/2000/svg">
  <path id="core-a" d="m3.1737 0c-1.7582 0-3.1737 1.3406-3.1737 3.0058v0.3363c0 1.6652 1.4155 3.0058 3.1737 3.0058 0.67048 0 2.1196 0.058477 2.1196-0.43006 0-0.45635-0.57233-0.32739-0.69503-0.78534s0.24667-0.57088 0.54239-0.65012c0.29572-0.079242 0.64876-0.22804 0.85348-0.43277 0.28798-0.34264 0.33547-0.58496 0.35333-0.99495 0.072448-1.6636-1.4155-3.0546-3.1737-3.0546zm0.30141 0.73924a0.59507 0.59511 0 0 1 3.874e-4 0 0.59507 0.59511 0 0 1 0.010073 0 0.59507 0.59511 0 0 1 0.59507 0.59511 0.59507 0.59511 0 0 1-0.59507 0.59511 0.59507 0.59511 0 0 1-0.59507-0.59511 0.59507 0.59511 0 0 1 0.58461-0.59511zm-1.8073 0.60828a0.59507 0.59511 0 0 1 3.875e-4 0 0.59507 0.59511 0 0 1 0.010073 0 0.59507 0.59511 0 0 1 0.59507 0.59511 0.59507 0.59511 0 0 1-0.59507 0.59511 0.59507 0.59511 0 0 1-0.59507-0.59511 0.59507 0.59511 0 0 1 0.58461-0.59511zm3.3279 0.4781a0.59507 0.59511 0 0 1 3.876e-4 0 0.59507 0.59511 0 0 1 0.010073 0 0.59507 0.59511 0 0 1 0.59507 0.59511 0.59507 0.59511 0 0 1-0.59507 0.59511 0.59507 0.59511 0 0 1-0.59507-0.59511 0.59507 0.59511 0 0 1 0.58461-0.59511zm-3.6743 1.2472a0.59507 0.59511 0 0 1 0.01046 0 0.59507 0.59511 0 0 1 0.59507 0.59511 0.59507 0.59511 0 0 1-0.59507 0.59511 0.59507 0.59511 0 0 1-0.59507-0.59511 0.59507 0.59511 0 0 1 0.58461-0.59511z" style="stroke-linejoin:round;stroke-width:4.457"/>
</svg>
