<svg id="Core" version="1.1" viewBox="0 0 22 24.002" xmlns="http://www.w3.org/2000/svg">
    <g transform="translate(-.67969 -.044922)">
        <path id="Shape" d="m2.1797 0.044922c-0.831 0-1.5 0.66894-1.5 1.4999v21c0 0.83094 0.669 1.4999 1.5 1.4999h3c0.831 0 1.5-0.66894 1.5-1.4999v-21c0-0.83094-0.669-1.4999-1.5-1.4999zm16 0c-0.831 0-1.5 0.66894-1.5 1.4999v21c0 0.83094 0.66899 1.4999 1.5 1.4999h3c0.831 0 1.5-0.66894 1.5-1.4999v-21c0-0.83094-0.669-1.4999-1.5-1.4999z" style="stroke-dasharray:30.2388, 15.11940000000000062;stroke-dashoffset:24.947;stroke-linejoin:round;stroke-width:3.7798"/>
    </g>
</svg>
