<svg width="22" height="24" version="1.1" viewBox="0 0 5.8208 6.35" xmlns="http://www.w3.org/2000/svg">
    <g transform="translate(-.61506 .19529)">
        <path id="core-a" d="m1.0119-0.19529h0.79376c0.21987 0 0.39687 0.177 0.39687 0.39687v5.5563c0 0.21987-0.177 0.39687-0.39687 0.39687h-0.79376c-0.21987 0-0.39687-0.177-0.39687-0.39687v-5.5563c0-0.21987 0.177-0.39687 0.39687-0.39687z"/>
        <path id="core-b" d="m5.2452-0.19529h0.79376c0.21987 0 0.39687 0.177 0.39687 0.39687v5.5563c0 0.21987-0.177 0.39687-0.39687 0.39687h-0.79376c-0.21987 0-0.39687-0.177-0.39687-0.39687v-5.5563c0-0.21987 0.177-0.39687 0.39687-0.39687z"/>
    </g>
</svg>
