<svg id="Core" width="24" height="24" version="1.1" viewBox="0 0 24 24" xmlns="http://www.w3.org/2000/svg">
    <g transform="translate(.28564 .91727)">
        <path id="Shape" d="m17.581 0.74763c-2.4049-2.4028-3.0126-2.0469-3.6043 0.05827-1.7809 6.3356-6.8557 7.2918-10.684 8.366-2.3804 0.66792-3.7493 1.8772-1.1156 4.5086l2.569 2.5667-4.7686 4.7645c-0.34344 0.34313-0.35108 0.89091-0.01708 1.2246l0.60166 0.60113c0.334 0.3337 0.88226 0.32607 1.2257-0.01708l4.7686-4.7645 2.5477 2.5454c2.6204 2.6181 3.7984 1.4264 4.5124-1.1146 1.0752-3.8253 2.0321-8.8955 8.3735-10.675 2.107-0.59119 2.4632-1.1984 0.05832-3.6011z" style="color:#000000;stroke-width:3.7795"/>
    </g>
</svg>
