<svg width="24" height="24" version="1.1" viewBox="0 0 6.35 6.35" xmlns="http://www.w3.org/2000/svg">
    <g transform="translate(-.87777 .68719)">
        <path id="core-a" d="m5.605-0.24668c-0.63629-0.63573-0.79708-0.54158-0.95365 0.015418-0.47119 1.6763-1.8139 1.9293-2.8269 2.2135-0.62982 0.17672-0.99199 0.49668-0.29517 1.1929l0.67971 0.67911-1.2617 1.2606c-0.090868 0.090787-0.09289 0.23572-0.00452 0.32401l0.15919 0.15905c0.08837 0.088291 0.23343 0.086272 0.3243-0.00452l1.2617-1.2606 0.67408 0.67348c0.69332 0.6927 1.005 0.37739 1.1939-0.29491 0.28449-1.0121 0.53767-2.3536 2.2155-2.8244 0.55749-0.15642 0.65172-0.31708 0.01543-0.9528z" style="color-rendering:auto;color:#000000;dominant-baseline:auto;font-feature-settings:normal;font-variant-alternates:normal;font-variant-caps:normal;font-variant-east-asian:normal;font-variant-ligatures:normal;font-variant-numeric:normal;font-variant-position:normal;font-variation-settings:normal;image-rendering:auto;inline-size:0;isolation:auto;mix-blend-mode:normal;shape-margin:0;shape-padding:0;shape-rendering:auto;solid-color:#000000;stop-color:#000000;text-decoration-color:#000000;text-decoration-line:none;text-decoration-style:solid;text-indent:0;text-orientation:mixed;text-transform:none;white-space:normal"/>
    </g>
</svg>
