<svg id="Core" width="24" height="24" version="1.1" viewBox="0 0 20 24" xmlns="http://www.w3.org/2000/svg">
    <g transform="translate(-1.1278 .759)">
        <path id="Shape" d="m2.4715-0.75535v0.00195c-0.37007 0.0276-0.69047 0.11119-0.93028 0.35106-0.407 0.40708-0.40566 0.68206-0.40566 0.92055 0 0.2092-0.0078 10.68-0.0078 10.68v0.07802s0.0078 10.478 0.0078 10.688c0 0.23848-0.00138 0.51542 0.40566 0.9225 0.2398 0.23984 0.5602 0.32344 0.93028 0.35106 0.12332 0.0056 0.28757 0.0059 0.39785-0.0078 0.16585-0.0204 0.32867-0.06854 0.48367-0.14042 0.62759-0.29 16.101-9.812 16.101-9.812 0.221-0.13572 0.63127-0.42515 0.86007-0.57924 0.61579-0.47156 0.78366-0.81152 0.81326-1.3438v-0.18723c-0.0296-0.53223-0.2286-0.8566-0.84447-1.3282-0.2236-0.15057-0.5256-0.34064-0.86007-0.54609 0 0-15.443-9.6154-16.07-9.9056-0.15498-0.07187-0.31781-0.11407-0.48367-0.13459-0.1103-0.013599-0.27454-0.013519-0.39785-0.0078012z" style="fill-opacity:.9947;stroke-dasharray:30.1961, 15.09800000000000075;stroke-dashoffset:24.912;stroke-linejoin:round;stroke-width:3.7745"/>
    </g>
</svg>
