<svg width="20" height="24" version="1.1" viewBox="0 0 5.2917 6.35" xmlns="http://www.w3.org/2000/svg">
    <g transform="translate(-1.7107 -1.4396)">
        <path id="core-a" d="m2.0657 1.4406c-0.097917 0.0073-0.18305 0.029056-0.2465 0.092518-0.10769 0.10771-0.10749 0.18137-0.10749 0.24447 0 0.0554-0.00103 2.8267-0.00103 2.8267v0.020674s0.00103 2.7713 0.00103 2.8267c0 0.063106-2.03e-4 0.13676 0.10749 0.24447 0.06345 0.063462 0.14858 0.085217 0.2465 0.092518h0.00103c0.032633 0.00151 0.075719 0.00153 0.1049-0.00206 0.04389-0.00543 0.087662-0.017167 0.12867-0.036181 0.166-0.076822 4.2587-2.5976 4.2587-2.5976 0.058466-0.035909 0.16735-0.11274 0.22789-0.15351 0.16294-0.12477 0.20762-0.21391 0.21549-0.35473v-0.049052c-0.0078714-0.14082-0.060816-0.22618-0.22376-0.35095-0.059159-0.039837-0.13939-0.090883-0.22789-0.14524 0 0-4.0844-2.5437-4.2504-2.6205-0.041012-0.019014-0.084784-0.03075-0.12867-0.036181-0.029184-0.0036-0.07227-0.00357-0.1049-0.00206z" style="color-rendering:auto;color:#000000;dominant-baseline:auto;font-feature-settings:normal;font-variant-alternates:normal;font-variant-caps:normal;font-variant-east-asian:normal;font-variant-ligatures:normal;font-variant-numeric:normal;font-variant-position:normal;font-variation-settings:normal;image-rendering:auto;inline-size:0;isolation:auto;mix-blend-mode:normal;shape-margin:0;shape-padding:0;shape-rendering:auto;solid-color:#000000;stop-color:#000000;stroke-width:.60318;text-decoration-color:#000000;text-decoration-line:none;text-decoration-style:solid;text-indent:0;text-orientation:mixed;text-transform:none;white-space:normal"/>
    </g>
</svg>
