<svg width="24" height="24" version="1.1" viewBox="0 0 6.3499 6.3501" xmlns="http://www.w3.org/2000/svg">
    <g transform="translate(.26882 .16721)">
        <g transform="matrix(-1 0 0 1 5.8123 0)">
            <rect id="core-a" x="4.4936" y="-.16721" width="1.5875" height="6.3499" rx=".39686" ry=".39686" style="stroke-width:.99998"/>
            <path id="core-b" d="m0.021079-0.16566c-0.078695 0.007213-0.1544 0.041435-0.21135 0.089398-0.066083 0.055654-0.07747 0.13525-0.077513 0.24752l-0.001033 2.8262v0.020669l0.001033 2.8262c4.099e-5 0.11227 0.011428 0.19187 0.077513 0.24752 0.075936 0.063951 0.18507 0.10364 0.29042 0.087331 0.035114-0.00544 0.070012-0.017168 0.10283-0.036173 0.13263-0.076822 3.4003-2.6287 3.4003-2.6287 0.070806-0.054349 0.13509-0.10538 0.18241-0.14521 0.13035-0.12473 0.1725-0.21008 0.1788-0.35088-1.799e-4 -0.0038-0.00132-0.00661-0.00156-0.010334 2.228e-4 -0.00372 0.00138-0.00653 0.00156-0.010334-0.0063-0.14079-0.048447-0.22614-0.1788-0.35088-0.047327-0.039824-0.11161-0.090858-0.18241-0.14521 0 0-3.2675-2.5519-3.4003-2.6287-0.03281-0.019006-0.067718-0.030736-0.10283-0.036173-0.026335-0.004078-0.05283-0.004471-0.079063-0.002067z" style="color-rendering:auto;color:#000000;dominant-baseline:auto;font-feature-settings:normal;font-variant-alternates:normal;font-variant-caps:normal;font-variant-east-asian:normal;font-variant-ligatures:normal;font-variant-numeric:normal;font-variant-position:normal;font-variation-settings:normal;image-rendering:auto;inline-size:0;isolation:auto;mix-blend-mode:normal;shape-margin:0;shape-padding:0;shape-rendering:auto;solid-color:#000000;stop-color:#000000;stroke-width:.53944;text-decoration-color:#000000;text-decoration-line:none;text-decoration-style:solid;text-indent:0;text-orientation:mixed;text-transform:none;white-space:normal"/>
        </g>
    </g>
</svg>
