<svg id="Core" width="24" height="24" version="1.1" viewBox="0 0 24 24" xmlns="http://www.w3.org/2000/svg">
    <g transform="translate(2.6047 .71344)">
        <path id="Shape" transform="translate(-2.6047 -.71344)" d="m12 0a12 12 0 0 0-12 12 12 12 0 0 0 12 12 12 12 0 0 0 12-12 12 12 0 0 0-12-12zm-0.072266 2.2676a9.7323 9.7323 0 0 1 0.072266 0 9.7323 9.7323 0 0 1 9.7324 9.7324 9.7323 9.7323 0 0 1-9.7324 9.7324 9.7323 9.7323 0 0 1-9.7324-9.7324 9.7323 9.7323 0 0 1 9.6602-9.7324zm-5.9355 8.2324c-0.82711 0-1.4922 0.669-1.4922 1.5 0 0.831 0.66508 1.5 1.4922 1.5h12.014c0.82711 0 1.4941-0.669 1.4941-1.5 0-0.831-0.66703-1.5-1.4941-1.5h-9.9531-2.0605z" style="stroke-dasharray:30.24, 15.11999999999999922;stroke-dashoffset:24.948;stroke-linejoin:round;stroke-width:3.78"/>
    </g>
</svg>
