<svg width="24" height="24" version="1.1" viewBox="0 0 6.35 6.35" xmlns="http://www.w3.org/2000/svg">
    <g transform="translate(.021428 .13574)">
        <path id="core-a" d="m3.1536-0.13574a3.175 3.175 0 0 0-3.175 3.175 3.175 3.175 0 0 0 3.175 3.175 3.175 3.175 0 0 0 3.175-3.175 3.175 3.175 0 0 0-3.175-3.175zm-0.01912 0.59996a2.575 2.575 0 0 1 0.01912 0 2.575 2.575 0 0 1 2.575 2.575 2.575 2.575 0 0 1-2.575 2.575 2.575 2.575 0 0 1-2.575-2.575 2.575 2.575 0 0 1 2.5559-2.575z" style="stroke-width:.26458"/>
        <path id="core-b" d="m1.5642 2.6424c-0.21884 0-0.39502 0.17701-0.39502 0.39688 0 0.21987 0.17618 0.39688 0.39502 0.39688h3.1787c0.21884 0 0.39502-0.17701 0.39502-0.39688 0-0.21987-0.17618-0.39688-0.39502-0.39688h-2.6335z" style="stroke-width:.26396"/>
    </g>
</svg>
