<svg width="24" height="24" version="1.1" viewBox="0 0 6.35 6.35" xmlns="http://www.w3.org/2000/svg">
    <g transform="translate(-.0082783 .25455)">
        <path id="core-a" d="m0.59542 0.33257c-0.79064 0.82216-0.78325 2.1311 0.025048 2.9424 0.71479 0.71736 1.8383 0.81935 2.6698 0.24237 0 0 0.017278-0.032561 0.17791 0.028363 0.091644 0.039582 0.18933 0.11627 0.18933 0.2409 0.00371 0.11356 0.065566 0.16502 0.065566 0.16502l2.0152 2.0233c0.14423 0.14476 0.3832 0.16637 0.52453 0.025048 0.14132-0.14132 0.11971-0.3803-0.025048-0.52453l-2.0233-2.0152s-0.051456-0.061863-0.16502-0.065566c-0.12463 0-0.20132-0.097687-0.2409-0.18933-0.060925-0.16063-0.028363-0.17791-0.028363-0.17791 0.57698-0.83145 0.47499-1.955-0.24237-2.6698-0.81129-0.80829-2.1202-0.81569-2.9424-0.025048zm0.49395 0.49395c0.54753-0.53958 1.4286-0.53736 1.9729 0.00737 0.5443 0.54432 0.54642 1.4251 7e-3 1.9725-0.54741 0.53942-1.4282 0.53731-1.9725-7e-3 -0.54473-0.54427-0.54694-1.4253-0.00737-1.9729z" style="stroke-width:.26671"/>
    </g>
</svg>
