<svg id="Core" version="1.1" viewBox="0 0 24 24" xmlns="http://www.w3.org/2000/svg">
    <g transform="translate(2.6412 1.3494)">
        <path id="Shape" d="m-0.42209 0.86967c-2.9882 3.1074-2.9603 8.0546 0.09467 11.121 2.7016 2.7113 6.9479 3.0968 10.091 0.91604 0 0 0.0653-0.12306 0.67242 0.1072 0.34637 0.1496 0.80933 0.5332 0.80933 1.0042 0.01402 0.4292 0.24781 0.6237 0.24781 0.6237l7.5228 7.5534c0.54512 0.54712 1.4483 0.6288 1.9825 0.09467 0.53412-0.53412 0.45245-1.4374-0.09467-1.9825l-7.5534-7.4786s-0.19448-0.23381-0.6237-0.24781c-0.47104 0-0.85464-0.50716-1.0042-0.85352-0.23027-0.60711-0.1072-0.67242-0.1072-0.67242 2.1807-3.1425 1.7952-7.389-0.91604-10.091-3.0663-3.055-8.0134-3.0829-11.121-0.09467zm1.8669 1.8669c2.0694-2.0394 5.3994-2.031 7.4566 0.02786 2.0572 2.0573 2.0652 5.3862 0.02646 7.4551-2.069 2.0388-5.3979 2.0308-7.4551-0.02646-2.0588-2.0571-2.0672-5.387-0.02786-7.4566z" style="stroke-width:1.008"/>
    </g>
</svg>
