<svg width="24" height="24" version="1.1" viewBox="0 0 6.3499 6.3499" xmlns="http://www.w3.org/2000/svg">
    <g transform="translate(.60703 .40428)">
        <path id="core-a" d="m2.3535-0.40428c-0.17871 0-0.33551 0.12203-0.35242 0.28215l-0.058393 0.54932a2.4256 2.4256 0 0 0-0.58962 0.24443l-0.42941-0.34779c-0.12519-0.10125-0.32271-0.076239-0.44907 0.050125l-0.30334 0.30334c-0.12636 0.12636-0.15086 0.32387-0.049609 0.44907l0.34726 0.42941a2.4256 2.4256 0 0 0-0.24391 0.58962l-0.54982 0.058393c-0.16012 0.016927-0.28215 0.17372-0.28215 0.35242v0.42994c0 0.17871 0.12203 0.33551 0.28215 0.35242l0.54932 0.057877a2.4256 2.4256 0 0 0 0.24443 0.58911l-0.34779 0.42941c-0.10125 0.12519-0.076239 0.32321 0.050125 0.44957l0.30334 0.30334c0.12636 0.12636 0.32387 0.15086 0.44907 0.049609l0.42941-0.34779a2.4256 2.4256 0 0 0 0.58962 0.24443l0.058393 0.54932c0.016928 0.16012 0.17372 0.28215 0.35242 0.28215h0.42994c0.17871 0 0.33551-0.12203 0.35242-0.28215l0.057877-0.54932a2.4256 2.4256 0 0 0 0.58911-0.24443l0.42941 0.34779c0.12519 0.10125 0.32271 0.076755 0.44907-0.049609l0.30334-0.30334c0.12636-0.12636 0.15138-0.32438 0.050125-0.44957l-0.34779-0.42994a2.4256 2.4256 0 0 0 0.24443-0.58858l0.54932-0.057877c0.16012-0.016928 0.28215-0.17372 0.28215-0.35242v-0.42994c0-0.17871-0.12203-0.33551-0.28215-0.35242l-0.54879-0.058393a2.4256 2.4256 0 0 0-0.24494-0.58962l0.34779-0.42941c0.10125-0.12519 0.076755-0.32271-0.049609-0.44907l-0.30334-0.30334c-0.12636-0.12636-0.32437-0.15138-0.44957-0.050125l-0.42941 0.34779a2.4256 2.4256 0 0 0-0.58858-0.24391l-0.058393-0.54982c-0.016927-0.16012-0.17372-0.28215-0.35242-0.28215h-0.42994zm0.14883 1.7156a1.4412 1.4412 0 0 1 0.020672 0 1.4412 1.4412 0 0 1 0.010334 0 1.4412 1.4412 0 0 1 1.4417 1.4412 1.4412 1.4412 0 0 1-1.4417 1.4417 1.4412 1.4412 0 0 1-1.4407-1.4417 1.4412 1.4412 0 0 1 1.4097-1.4412z" style="color-rendering:auto;color:#000000;dominant-baseline:auto;font-feature-settings:normal;font-variant-alternates:normal;font-variant-caps:normal;font-variant-east-asian:normal;font-variant-ligatures:normal;font-variant-numeric:normal;font-variant-position:normal;font-variation-settings:normal;image-rendering:auto;inline-size:0;isolation:auto;mix-blend-mode:normal;shape-margin:0;shape-padding:0;shape-rendering:auto;solid-color:#000000;stop-color:#000000;stroke-width:.26458;text-decoration-color:#000000;text-decoration-line:none;text-decoration-style:solid;text-indent:0;text-orientation:mixed;text-transform:none;white-space:normal"/>
    </g>
</svg>
