<svg id="Core" version="1.1" viewBox="0 0 24 24" xmlns="http://www.w3.org/2000/svg">
    <g transform="translate(2.9675 1.7856)">
        <path id="Shape" d="m8.2219-1.7856c-0.67545 0-1.2681 0.46122-1.332 1.0664l-0.2207 2.0762a9.1678 9.1678 0 0 0-2.2285 0.92384l-1.623-1.3145c-0.47317-0.38268-1.2197-0.28815-1.6973 0.18945l-1.1465 1.1465c-0.47759 0.47759-0.57019 1.2241-0.1875 1.6973l1.3125 1.623a9.1678 9.1678 0 0 0-0.92188 2.2285l-2.0781 0.2207c-0.60519 0.06398-1.0664 0.65659-1.0664 1.332v1.625c0 0.67545 0.46122 1.2681 1.0664 1.332l2.0762 0.21875a9.1678 9.1678 0 0 0 0.92384 2.2266l-1.3145 1.623c-0.38268 0.47317-0.28815 1.2216 0.18945 1.6992l1.1465 1.1465c0.47759 0.47759 1.2241 0.57019 1.6973 0.1875l1.623-1.3145a9.1678 9.1678 0 0 0 2.2285 0.92384l0.2207 2.0762c0.064 0.60519 0.65659 1.0664 1.332 1.0664h1.625c0.67545 0 1.2681-0.46122 1.332-1.0664l0.21875-2.0762a9.1678 9.1678 0 0 0 2.2266-0.92384l1.623 1.3145c0.47316 0.38268 1.2197 0.2901 1.6973-0.1875l1.1465-1.1465c0.47759-0.47759 0.57216-1.226 0.18946-1.6992l-1.3145-1.625a9.1678 9.1678 0 0 0 0.92385-2.2246l2.0762-0.21875c0.60519-0.06398 1.0664-0.65659 1.0664-1.332v-1.625c0-0.67545-0.46122-1.2681-1.0664-1.332l-2.0742-0.2207a9.1678 9.1678 0 0 0-0.92577-2.2285l1.3145-1.623c0.38269-0.47317 0.2901-1.2197-0.1875-1.6973l-1.1465-1.1465c-0.47759-0.47759-1.226-0.57215-1.6992-0.18945l-1.623 1.3145a9.1678 9.1678 0 0 0-2.2246-0.92188l-0.2207-2.0781c-0.064-0.60519-0.65659-1.0664-1.332-1.0664h-1.625zm0.56251 6.4843a5.4471 5.4471 0 0 1 0.0781 0 5.4471 5.4471 0 0 1 0.0391 0 5.4471 5.4471 0 0 1 5.449 5.4471 5.4471 5.4471 0 0 1-5.449 5.449 5.4471 5.4471 0 0 1-5.4452-5.449 5.4471 5.4471 0 0 1 5.3281-5.4471z" style="color:#000000"/>
    </g>
</svg>
