<svg id="Core" width="24" height="24" version="1.1" viewBox="0 0 24 24" xmlns="http://www.w3.org/2000/svg">
    <g transform="translate(3.6634 2.3729)">
        <path id="Shape" d="m8.2976-2.3729c-0.53224 0.018898-0.8546 0.14432-1.3262 0.53516-0.15054 0.14192-0.34533 0.33652-0.55078 0.54883 0 0-9.6335 9.5646-9.9238 9.9629-0.09662 0.13231-0.11016 0.21912-0.14062 0.33008-0.069328 0.30497 0.055995 0.82205 0.32031 1.0801 0.21041 0.19813 0.51111 0.23229 0.93555 0.23242l5.2266 2e-3v4.2305c0 0.81245 0.66797 1.4668 1.5 1.4668h7.9961c0.83203 0 1.502-0.65435 1.502-1.4668v-4.2305l5.2246-2e-3c0.4244-1.28e-4 0.72514-0.03427 0.93555-0.23242 0.26433-0.25803 0.38963-0.77509 0.32031-1.0801-0.03046-0.11096-0.04398-0.19777-0.14062-0.33008-0.29027-0.39836-9.9258-9.9629-9.9258-9.9629-0.20547-0.21232-0.39826-0.40692-0.54883-0.54883-0.47153-0.39086-0.7939-0.51626-1.3262-0.53516-0.014493 5.5e-4 -0.025079 0.00324-0.039063 0.00391-0.014117-6.6e-4 -0.0247-0.00333-0.039062-0.00391zm-10.658 20c-0.7217 0-1.3027 0.58103-1.3027 1.3027v1.3945c0 0.7217 0.58103 1.3027 1.3027 1.3027h21.395c0.7217 0 1.3027-0.58103 1.3027-1.3027v-1.3945c0-0.7217-0.58103-1.3027-1.3027-1.3027z" style="stroke-dasharray:30.24, 15.11999999999999922;stroke-dashoffset:24.948;stroke-linejoin:round;stroke-width:3.78"/>
    </g>
</svg>
