<svg width="24" height="24" version="1.1" viewBox="0 0 6.3499 6.3499" xmlns="http://www.w3.org/2000/svg">
    <g transform="translate(1.4334 .41452)">
        <path id="core-a" d="m1.7416-0.41452a3.175 3.175 0 0 0-3.175 3.175 3.175 3.175 0 0 0 3.175 3.175 3.175 3.175 0 0 0 3.175-3.175 3.175 3.175 0 0 0-3.175-3.175zm2.018 1.7296c0.057207-0.00293 0.12025 0.015663 0.18293 0.065111l0.082681 0.080615c0.09141 0.089492 0.10584 0.21988 0 0.3235l-2.6117 2.5564-0.083197 0.081647c-0.091412 0.089481-0.2388 0.089481-0.3302 0l-0.082165-0.080616-1.5126-1.4805c-0.09141-0.089491-0.09141-0.23348 0-0.32297l0.082165-0.080615c0.091412-0.089491 0.2388-0.089491 0.3302 0l1.3477 1.3188 2.4474-2.3962c0.038533-0.037724 0.089552-0.062182 0.14676-0.065111z" style="stroke-width:.26458"/>
    </g>
</svg>
