<svg id="Core" version="1.1" viewBox="0 0 24 24" xmlns="http://www.w3.org/2000/svg">
    <g transform="translate(3.549 1.1974)">
        <path id="Shape" d="m8.4511-1.1974a12 12 0 0 0-12 12 12 12 0 0 0 12 12 12 12 0 0 0 12-12 12 12 0 0 0-12-12zm7.6272 6.5372c0.21622-0.01107 0.4545 0.0592 0.6914 0.24609l0.3125 0.30469c0.34549 0.33824 0.40003 0.83106 0 1.2227l-9.8711 9.6621-0.31445 0.30859c-0.3455 0.3382-0.90256 0.3382-1.248 0l-0.31055-0.3047-5.717-5.5957c-0.34549-0.33824-0.34549-0.88246 0-1.2207l0.31055-0.30469c0.3455-0.33824 0.90256-0.33824 1.248 0l5.0937 4.9845 9.2502-9.0566c0.14564-0.14258 0.33847-0.23502 0.55469-0.24609z"/>
    </g>
</svg>
