<svg version="1.1" viewBox="0 0 24 24" xmlns="http://www.w3.org/2000/svg">
    <g id="Core">
        <path id="Shape" d="m7.0547 0c-1.7304 0-3.123 1.3966-3.123 3.127v13.818c0 1.7304 1.3927 3.123 3.123 3.123h13.822c1.7304 0 3.123-1.3927 3.123-3.123v-10.045c0-1.917-1.546-3.4713-3.4629-3.459h-5.707l-1.9395-3.4395zm-4.4883 3.9883c-1.4614 0.26274-2.5664 1.5291-2.5664 3.0684v13.82c0 1.7304 1.3946 3.123 3.125 3.123h13.82c1.5392 0 2.8061-1.103 3.0684-2.5645-0.18149 0.03257-0.36745 0.05664-0.55859 0.05664h-13.822c-1.7304 3e-6 -3.123-1.3927-3.123-3.123v-13.82c0-0.19198 0.023791-0.37825 0.056641-0.56055zm8.8906 3.541c0.03867-0.0018 0.09042-0.00235 0.125 0.00195 0.05201 0.00643 0.10179 0.018486 0.15039 0.041016 0.19673 0.091016 5.0391 3.1074 5.0391 3.1074 0.10488 0.06442 0.19942 0.12271 0.26953 0.16992 0.19312 0.14786 0.25632 0.25108 0.26562 0.41797v0.05859c-0.0093 0.16689-0.06277 0.27206-0.25586 0.41992-0.07174 0.04832-0.20023 0.13908-0.26953 0.18164 0 0-4.852 2.9872-5.0488 3.0781-0.0486 0.02254-0.09838 0.03657-0.15039 0.04297-0.03458 0.0043-0.08633 0.0038-0.125 2e-3 -0.11605-0.0087-0.21583-0.03416-0.29102-0.10937-0.12761-0.12764-0.12891-0.21428-0.12891-0.28906 0-0.06566-0.0039-3.3516-0.0039-3.3516v-0.02344s0.0039-3.284 0.0039-3.3496c0-0.074781 0.0013-0.16142 0.12891-0.28906 0.07519-0.075205 0.17497-0.10068 0.29102-0.10938z" style="stroke-dasharray:21.9023, 10.95110000000000028;stroke-dashoffset:18.069;stroke-linejoin:round;stroke-width:2.7378"/>
    </g>
</svg>
