<svg id="Core" version="1.1" viewBox="0 0 24 24" xmlns="http://www.w3.org/2000/svg">
    <g transform="translate(3.4165 1.7287)">
        <path id="Shape" transform="translate(-3.3461 -1.7834)" d="m6.9824 0.054688c-1.7304 0-3.123 1.3966-3.123 3.127v13.818c0 1.7304 1.3926 3.123 3.123 3.123h13.822c1.7304 0 3.125-1.3927 3.125-3.123v-10.047c0-1.917-1.5459-3.4713-3.4629-3.459h-5.707l-1.9414-3.4395zm-4.4883 3.9883c-1.4615 0.26274-2.5645 1.5291-2.5645 3.0684v13.82c0 1.7304 1.3926 3.123 3.123 3.123h13.822c1.5393 0 2.8041-1.103 3.0664-2.5645-0.1815 0.03257-0.36744 0.05664-0.55859 0.05664h-13.822c-1.7304 4e-6 -3.123-1.3946-3.123-3.125v-13.818c0-0.19198 0.02379-0.37825 0.056641-0.56055zm8.8906 3.541c0.03867-0.00179 0.09041-0.00232 0.125 0.00195 0.05201 0.00643 0.10374 0.018486 0.15234 0.041016 0.19674 0.091016 5.0391 3.1074 5.0391 3.1074 0.10489 0.06442 0.19942 0.12271 0.26953 0.16992 0.19313 0.14786 0.25439 0.25108 0.26367 0.41797v0.05859c-0.0093 0.16689-0.0608 0.27206-0.25391 0.41992-0.07174 0.04832-0.20023 0.13908-0.26953 0.18164 0 0-4.852 2.9872-5.0488 3.0781-0.0486 0.02254-0.10034 0.03657-0.15234 0.04297-0.03458 0.0043-0.08633 0.0038-0.125 2e-3 -0.11605-0.0087-0.21582-0.03417-0.29102-0.10938-0.12764-0.12764-0.12695-0.21428-0.12695-0.28906 0-0.06566-0.0039-3.3516-0.0039-3.3516v-0.02344s0.0039-3.284 0.0039-3.3496c0-0.074781-6.75e-4 -0.16142 0.12695-0.28906 0.0752-0.075209 0.17497-0.10072 0.29102-0.10938z" style="stroke-dasharray:30.24, 15.11999999999999922;stroke-dashoffset:24.948;stroke-linejoin:round;stroke-width:3.78"/>
    </g>
</svg>
