<svg id="Core" width="24" height="24" version="1.1" viewBox="0 0 24 24" xmlns="http://www.w3.org/2000/svg">
    <g transform="translate(7.8433 3.5222)">
        <path id="Shape" transform="translate(-7.8433 -3.5217)" d="m15.518 0v2.6348a9.1701 10.276 0 0 1 5.3926 9.3672 9.1701 10.276 0 0 1-5.3926 9.3633v2.6348a10.457 12.221 0 0 0 8.4824-12 10.457 12.221 0 0 0-8.4824-12zm-4.502 0.0019531c-0.1714 0.0067889-0.3458 0.027955-0.52344 0.056641-1.4211 0.22967-4.5134 4.6805-5.7617 5.8223-1.2481 1.1419-1.5515 0.85093-2.5859 1.0684-1.4787 0.31085-2.1445 1.9752-2.1445 5.0508 0 3.0755 0.7636 4.6151 2.082 5.0176 1.3184 0.40251 1.4307-0.01443 2.6484 1.0996 1.2177 1.114 4.3406 5.5929 5.7617 5.8223 0.71054 0.11484 1.3638 0.09551 1.9922-0.3457 0.62837-0.44122 1.2148-1.6734 1.2148-2.998v-17.193c-1e-6 -1.3246-0.58647-2.5568-1.2148-2.998-0.3142-0.2206-0.63422-0.33282-0.96484-0.37891-0.16532-0.023074-0.33251-0.030226-0.50391-0.023438zm4.502 5.5v12.994a5.7232 7.1288 0 0 0 3.3672-6.4961 5.7232 7.1288 0 0 0-3.3672-6.498z" style="stroke-dasharray:30.24, 15.11999999999999922;stroke-dashoffset:24.948;stroke-linejoin:round;stroke-width:3.78"/>
    </g>
</svg>
