<svg id="Core" version="1.1" viewBox="0 0 18.885 23.999" xmlns="http://www.w3.org/2000/svg">
    <g transform="translate(1.8162 2.2736)">
        <path id="Shape" transform="translate(-1.8162 -2.2736)" d="m11.016 0.0019531c-0.17139 0.0067889-0.3458 0.027954-0.52344 0.056641-1.4211 0.22966-4.5134 4.6805-5.7617 5.8223-1.2481 1.1418-1.5515 0.85093-2.5859 1.0684-1.4787 0.31084-2.1445 1.9752-2.1445 5.0508 2.9606e-16 3.0756 0.76363 4.6151 2.082 5.0176 1.3184 0.40252 1.4308-0.014396 2.6484 1.0996 1.2177 1.114 4.3406 5.5928 5.7617 5.8223 0.7105 0.11483 1.3638 0.093541 1.9922-0.34766 0.62838-0.44122 1.2148-1.6715 1.2148-2.9961v-17.193c-1e-6 -1.3246-0.5865-2.5548-1.2148-2.9961-0.31419-0.22059-0.63425-0.33476-0.96484-0.38086-0.16532-0.023074-0.33252-0.030226-0.50391-0.023438zm4.502 5.5v12.994a5.7233 7.1285 0 0 0 3.3672-6.4961 5.7233 7.1285 0 0 0-3.3672-6.498z" style="stroke-dasharray:30.24, 15.11999999999999922;stroke-dashoffset:24.948;stroke-linejoin:round;stroke-width:3.78"/>
    </g>
</svg>
