<svg width="24" height="24" version="1.1" viewBox="0 0 6.3472 6.3499" xmlns="http://www.w3.org/2000/svg">
    <g transform="translate(1.3659 .34838)">
        <path id="core-a" d="m1.6836-0.34175c-0.087524-0.01221-0.17822-0.00651-0.27226 0.00867-0.37617 0.060768-1.1948 1.2386-1.5253 1.5407-0.33039 0.30212-0.41052 0.22528-0.68435 0.28281-0.39142 0.082246-0.56763 0.52225-0.56763 1.336s0.20209 1.2212 0.55108 1.3277c0.34899 0.1065 0.37856-0.00368 0.70089 0.29108 0.32234 0.29476 1.1491 1.48 1.5253 1.5407 0.18808 0.030384 0.36097 0.02478 0.52731-0.091959 0.16633-0.11674 0.32185-0.44244 0.32185-0.79292v-4.5493c-2e-7 -0.35047-0.15552-0.67617-0.32185-0.79292-0.083169-0.058368-0.16753-0.088437-0.25505-0.10063z" style="color-rendering:auto;color:#000000;dominant-baseline:auto;font-feature-settings:normal;font-variant-alternates:normal;font-variant-caps:normal;font-variant-east-asian:normal;font-variant-ligatures:normal;font-variant-numeric:normal;font-variant-position:normal;font-variation-settings:normal;image-rendering:auto;inline-size:0;isolation:auto;mix-blend-mode:normal;shape-margin:0;shape-padding:0;shape-rendering:auto;solid-color:#000000;stop-color:#000000;stroke-width:1.0002;text-decoration-color:#000000;text-decoration-line:none;text-decoration-style:solid;text-indent:0;text-orientation:mixed;text-transform:none;white-space:normal"/>
        <path id="core-b" d="m2.8603 1.5925c-0.075516 0-0.151 0.028461-0.20886 0.0863l-0.050148 0.050126c-0.11573 0.11568-0.11573 0.30238 0 0.41806l0.67984 0.67955-0.67984 0.68006c-0.11573 0.11568-0.11573 0.30187 0 0.41755l0.050148 0.050126c0.11573 0.11568 0.302 0.11568 0.41774 0l0.68036-0.68006 0.67984 0.68006c0.11573 0.11568 0.302 0.11568 0.41774 0l0.050148-0.050126c0.11573-0.11568 0.11573-0.30187 0-0.41755l-0.67984-0.68006 0.67984-0.67955c0.11573-0.11568 0.11573-0.30238 0-0.41806l-0.050148-0.050126c-0.11573-0.11568-0.302-0.11568-0.41774 0l-0.67984 0.68006-0.68036-0.68006c-0.057865-0.057839-0.13335-0.0863-0.20886-0.0863z" style="fill-opacity:.99597;stroke-opacity:0"/>
    </g>
</svg>
