<svg id="Corea" version="1.1" viewBox="0 0 13.7 24" xmlns="http://www.w3.org/2000/svg">
    <g transform="translate(.11715 1.8683)">
        <path id="Shape" d="m11.403-1.8432c-0.33065-0.046148-0.67328-0.024605-1.0286 0.032768-1.4211 0.22967-4.5139 4.6813-5.7623 5.8231-1.2481 1.1419-1.5509 0.85145-2.5854 1.0689-1.4787 0.31085-2.1444 1.9739-2.1444 5.0494 0 3.0756 0.76346 4.6155 2.0819 5.0181 1.3184 0.40252 1.4301-0.01391 2.6479 1.1001 1.2178 1.1141 4.3412 5.5937 5.7623 5.8231 0.71055 0.11482 1.3637 0.09366 1.9921-0.34756 0.62838-0.44122 1.2159-1.6722 1.2159-2.9969v-17.194c-1e-6 -1.3246-0.58753-2.5556-1.2159-2.9969-0.3142-0.2206-0.63292-0.33425-0.96355-0.38033z" style="color:#000000;stroke-width:3.7795"/>
    </g>
</svg>
