<svg width="18.885" height="23.999" version="1.1" viewBox="0 0 4.9966 6.3498" xmlns="http://www.w3.org/2000/svg">
    <g transform="translate(.55655 .24281)">
        <path id="core-a" d="m2.4915-0.23618c-0.087482-0.01221-0.17813-0.00651-0.27213 0.00867-0.37599 0.060766-1.1943 1.2386-1.5246 1.5407-0.33023 0.30211-0.41033 0.22527-0.68403 0.2828-0.39124 0.082244-0.56736 0.52224-0.56736 1.336s0.20199 1.2212 0.55082 1.3277c0.34883 0.1065 0.37838-0.00368 0.70056 0.29107 0.32219 0.29475 1.1486 1.48 1.5246 1.5407 0.18799 0.030383 0.3608 0.024779 0.52706-0.091956 0.16626-0.11674 0.3217-0.44243 0.3217-0.7929v-4.5492c-2e-7 -0.35046-0.15545-0.67615-0.3217-0.7929-0.08313-0.058366-0.16746-0.088434-0.25493-0.10063z" style="color-rendering:auto;color:#000000;dominant-baseline:auto;font-feature-settings:normal;font-variant-alternates:normal;font-variant-caps:normal;font-variant-east-asian:normal;font-variant-ligatures:normal;font-variant-numeric:normal;font-variant-position:normal;font-variation-settings:normal;image-rendering:auto;inline-size:0;isolation:auto;mix-blend-mode:normal;shape-margin:0;shape-padding:0;shape-rendering:auto;solid-color:#000000;stop-color:#000000;stroke-width:.99997;text-decoration-color:#000000;text-decoration-line:none;text-decoration-style:solid;text-indent:0;text-orientation:mixed;text-transform:none;white-space:normal"/>
        <path id="core-b" d="m3.5489 1.213v3.438a1.5143 1.8861 0 0 0 0.89118-1.7188 1.5143 1.8861 0 0 0-0.89118-1.7193z" style="stroke-width:.99997"/>
    </g>
</svg>
