<svg width="13.7" height="24" version="1.1" viewBox="0 0 3.6248 6.3499" xmlns="http://www.w3.org/2000/svg">
    <g transform="translate(.30093 .2112)">
        <path id="core-a" d="m2.7472-0.20458c-0.087485-0.01221-0.17814-0.00651-0.27214 0.00867-0.376 0.060768-1.1943 1.2386-1.5246 1.5407-0.33024 0.30212-0.41034 0.22528-0.68405 0.28281-0.39125 0.082246-0.56738 0.52225-0.56738 1.336s0.202 1.2212 0.55084 1.3277c0.34884 0.1065 0.37839-0.00368 0.70058 0.29108 0.3222 0.29476 1.1486 1.48 1.5246 1.5407 0.188 0.03038 0.36081 0.02478 0.52708-0.09196 0.16626-0.11674 0.32171-0.44244 0.32171-0.79292v-4.5493c-2e-7 -0.35047-0.15545-0.67617-0.32171-0.79292-0.083132-0.058368-0.16746-0.088437-0.25494-0.10063z" style="color-rendering:auto;color:#000000;dominant-baseline:auto;font-feature-settings:normal;font-variant-alternates:normal;font-variant-caps:normal;font-variant-east-asian:normal;font-variant-ligatures:normal;font-variant-numeric:normal;font-variant-position:normal;font-variation-settings:normal;image-rendering:auto;inline-size:0;isolation:auto;mix-blend-mode:normal;shape-margin:0;shape-padding:0;shape-rendering:auto;solid-color:#000000;stop-color:#000000;text-decoration-color:#000000;text-decoration-line:none;text-decoration-style:solid;text-indent:0;text-orientation:mixed;text-transform:none;white-space:normal"/>
    </g>
</svg>
