<svg id="Core" version="1.1" viewBox="0 0 24 24.001" xmlns="http://www.w3.org/2000/svg">
    <g transform="translate(7.0159 3.2381)">
        <path id="Shape" transform="translate(-7.0159 -3.2376)" d="m11.021 0.0019531c-0.17148 0.0067891-0.34767 0.027954-0.52539 0.056641-1.4218 0.22968-4.5145 4.6805-5.7637 5.8223-1.2487 1.1419-1.5529 0.85092-2.5879 1.0684-1.4794 0.31086-2.1445 1.9751-2.1445 5.0508s0.76299 4.6151 2.082 5.0176c1.319 0.40253 1.4321-0.01446 2.6504 1.0996 1.2183 1.1141 4.3418 5.5948 5.7637 5.8242 0.71086 0.11484 1.3654 0.09357 1.9941-0.34766 0.62866-0.44123 1.2168-1.6734 1.2168-2.998v-17.193c0-1.3246-0.58814-2.5568-1.2168-2.998-0.31434-0.22061-0.63405-0.33282-0.96484-0.37891-0.1654-0.023075-0.33243-0.030227-0.50391-0.023438zm11.672 7.332c-0.28536 0-0.57034 0.10951-0.78906 0.32812l-2.5703 2.5703-2.5703-2.5703c-0.21871-0.21861-0.50562-0.32617-0.79102-0.32617-0.28542 0-0.57038 0.10756-0.78906 0.32617l-0.18945 0.18945c-0.43741 0.43722-0.43741 1.1429 0 1.5801l2.5703 2.5684-2.5703 2.5703c-0.43741 0.43722-0.43741 1.1409 0 1.5781l0.18945 0.18945c0.43741 0.43722 1.1426 0.43722 1.5801 0l2.5703-2.5703 2.5703 2.5703c0.43741 0.43722 1.1407 0.43722 1.5781 0l0.18945-0.18945c0.43741-0.43722 0.43741-1.1409 0-1.5781l-2.5684-2.5703 2.5684-2.5684c0.43741-0.43722 0.43741-1.1429 0-1.5801l-0.18945-0.18945c-0.21871-0.21861-0.5037-0.32812-0.78906-0.32812z" style="stroke-dasharray:30.24, 15.11999999999999922;stroke-dashoffset:24.948;stroke-linejoin:round;stroke-width:3.78"/>
    </g>
</svg>
