<svg id="Core" width="24" height="24" version="1.1" viewBox="0 0 24 24" xmlns="http://www.w3.org/2000/svg">
    <g transform="translate(10.279 5.2978)">
        <path id="Shape" d="m0.091477-5.1867a12 12 0 0 0-10.26 13.518 12 12 0 0 0 13.518 10.26 12 12 0 0 0 10.26-13.518 12 12 0 0 0-13.518-10.26zm0.2305 2.2572a9.7323 9.7323 0 0 1 0.0039-5.304e-4 9.7323 9.7323 0 0 1 0.0019-2.652e-4 9.7323 9.7323 0 0 1 0.0716-0.00981 9.7323 9.7323 0 0 1 2.2092-0.048472 30.215 14.341 82.196 0 1 1.2949 5.3484 13.182 51.587 82.196 0 0-2.7291 0.35432 13.182 51.587 82.196 0 0-2.3202 0.33179 30.215 14.341 82.196 0 1-0.14823-5.5982 9.7323 9.7323 0 0 1 1.6161-0.37723zm-4.1288 1.6205a30.215 14.341 82.196 0 0 0.16305 4.7426 13.182 51.587 82.196 0 0-4.0229 0.69528 9.7323 9.7323 0 0 1 3.86-5.4376zm9.2058-0.99753a9.7323 9.7323 0 0 1 4.667 4.0048 13.182 51.587 82.196 0 0-3.6518 0.36841 30.215 14.341 82.196 0 0-1.0153-4.3733zm-4.4152 7.57a13.182 51.587 82.196 0 1 0.53019-0.07267 13.182 51.587 82.196 0 1 2.8201-0.36679 30.215 14.341 82.196 0 1 0.15148 1.0477 30.215 14.341 82.196 0 1 0.30801 2.6645 13.182 51.587 82.196 0 1-2.7664 0.39885 13.182 51.587 82.196 0 1-2.4112 0.3147 30.215 14.341 82.196 0 1-0.34262-2.2122 30.215 14.341 82.196 0 1-0.18759-1.4982 13.182 51.587 82.196 0 1 1.8981-0.27591zm-4.3941 0.66334a30.215 14.341 82.196 0 0 0.18149 1.4537 30.215 14.341 82.196 0 0 0.33653 2.1677 13.182 51.587 82.196 0 1-4.5407 0.45479 9.7323 9.7323 0 0 1-0.48813-1.9794 9.7323 9.7323 0 0 1-0.09042-1.2927 13.182 51.587 82.196 0 1 4.6016-0.80413zm10.252-1.3932a13.182 51.587 82.196 0 1 4.2595-0.42214 9.7323 9.7323 0 0 1 0.26264 1.2691 9.7323 9.7323 0 0 1 0.06437 2.0375 13.182 51.587 82.196 0 1-4.1352 0.72446 30.215 14.341 82.196 0 0-0.30498-2.6137 30.215 14.341 82.196 0 0-0.14626-0.99523zm-13.014 7.8614a13.182 51.587 82.196 0 0 3.7538-0.38634 30.215 14.341 82.196 0 0 0.96945 3.8948 9.7323 9.7323 0 0 1-4.7233-3.5083zm17.028-2.3338a9.7323 9.7323 0 0 1-3.2912 4.4236 30.215 14.341 82.196 0 0-0.08476-3.8404 13.182 51.587 82.196 0 0 3.3759-0.58295zm-5.8772 0.97504a30.215 14.341 82.196 0 1 0.06431 4.8132 9.7323 9.7323 0 0 1-2.0002 0.49493 9.7323 9.7323 0 0 1-1.7357 0.08017 30.215 14.341 82.196 0 1-1.2139-4.7146 13.182 51.587 82.196 0 0 2.2736-0.2978 13.182 51.587 82.196 0 0 2.6118-0.37571z" style="stroke-width:.99999"/>
    </g>
</svg>
