<svg width="24" height="24" version="1.1" viewBox="0 0 6.35 6.35" xmlns="http://www.w3.org/2000/svg">
    <g transform="translate(.65775 .19048)">
        <path id="core-b" d="m2.0861-0.16108a3.175 3.175 0 0 0-2.7145 3.5767 3.175 3.175 0 0 0 3.5767 2.7145 3.175 3.175 0 0 0 2.7145-3.5767 3.175 3.175 0 0 0-3.5767-2.7145zm0.060987 0.59721a2.575 2.575 0 0 1 0.00102-1.4033e-4 2.575 2.575 0 0 1 5.119e-4 -7.017e-5 2.575 2.575 0 0 1 0.018944-0.002596 2.575 2.575 0 0 1 0.58452-0.012825 7.9945 3.7944 82.196 0 1 0.3426 1.4151 3.4878 13.649 82.196 0 0-0.72208 0.093748 3.4878 13.649 82.196 0 0-0.61388 0.087787 7.9945 3.7944 82.196 0 1-0.03922-1.4812 2.575 2.575 0 0 1 0.42759-0.099809zm-1.0924 0.42877a7.9945 3.7944 82.196 0 0 0.04314 1.2548 3.4878 13.649 82.196 0 0-1.0644 0.18396 2.575 2.575 0 0 1 1.0213-1.4387zm2.4357-0.26393a2.575 2.575 0 0 1 1.2348 1.0596 3.4878 13.649 82.196 0 0-0.9662 0.097475 7.9945 3.7944 82.196 0 0-0.26864-1.1571zm-1.1682 2.0029a3.4878 13.649 82.196 0 1 0.14028-0.019226 3.4878 13.649 82.196 0 1 0.74614-0.097046 7.9945 3.7944 82.196 0 1 0.040079 0.27721 7.9945 3.7944 82.196 0 1 0.081495 0.70498 3.4878 13.649 82.196 0 1-0.73194 0.10553 3.4878 13.649 82.196 0 1-0.63797 0.083265 7.9945 3.7944 82.196 0 1-0.090653-0.58532 7.9945 3.7944 82.196 0 1-0.049633-0.39639 3.4878 13.649 82.196 0 1 0.5022-0.073002zm-1.1626 0.17551a7.9945 3.7944 82.196 0 0 0.048019 0.38462 7.9945 3.7944 82.196 0 0 0.08904 0.57355 3.4878 13.649 82.196 0 1-1.2014 0.12033 2.575 2.575 0 0 1-0.12915-0.52371 2.575 2.575 0 0 1-0.023925-0.34202 3.4878 13.649 82.196 0 1 1.2175-0.21276zm2.7124-0.36861a3.4878 13.649 82.196 0 1 1.127-0.11169 2.575 2.575 0 0 1 0.069491 0.33577 2.575 2.575 0 0 1 0.01703 0.53908 3.4878 13.649 82.196 0 1-1.0941 0.19168 7.9945 3.7944 82.196 0 0-0.080694-0.69153 7.9945 3.7944 82.196 0 0-0.038697-0.26332zm-3.4433 2.08a3.4878 13.649 82.196 0 0 0.99319-0.10222 7.9945 3.7944 82.196 0 0 0.2565 1.0305 2.575 2.575 0 0 1-1.2497-0.92825zm4.5054-0.61749a2.575 2.575 0 0 1-0.87079 1.1704 7.9945 3.7944 82.196 0 0-0.022427-1.0161 3.4878 13.649 82.196 0 0 0.89322-0.15424zm-1.555 0.25798a7.9945 3.7944 82.196 0 1 0.017016 1.2735 2.575 2.575 0 0 1-0.52921 0.13095 2.575 2.575 0 0 1-0.45923 0.021211 7.9945 3.7944 82.196 0 1-0.32119-1.2474 3.4878 13.649 82.196 0 0 0.60155-0.078794 3.4878 13.649 82.196 0 0 0.69105-0.099406z" style="stroke-width:.26458"/>
    </g>
</svg>
